<svg id="SvgjsSvg1001" width="288" height="288" xmlns="http://www.w3.org/2000/svg" version="1.1" xmlns:xlink="http://www.w3.org/1999/xlink" xmlns:svgjs="http://svgjs.com/svgjs"><defs id="SvgjsDefs1002"></defs><g id="SvgjsG1008"><svg xmlns="http://www.w3.org/2000/svg" viewBox="0 0 97.789 112.248" width="288" height="288"><path fill="#fc72a6" fill-rule="evenodd" d="M51.437,21.8A130.449,130.449,0,0,0,23.643,49.23C15.748,59.795,9.424,71.161,6.041,84.01,14.781,58.578,31,38.656,51.437,21.8ZM13.125,86.02a11.621,11.621,0,0,0,1.99-5.61c.722-.1.654-.778.859-1.225,1.182-2.586,2.175-5.258,3.562-7.751.127-.229.426-.495.011-.906-1.615,3.284-3.406,6.418-4.385,9.925a22.05,22.05,0,0,0-2,5.607,23.22,23.22,0,0,0-1.5,5.424C12.106,89.651,13.249,88.006,13.125,86.02Zm-.8,12.75c2.882-16.923,10.586-31.676,20.8-45.305-.333.381-.685.747-1,1.145-9.673,12.336-16.749,25.95-20.3,41.315-1.126,4.865-2.083,9.773-3.535,14.56-.276.909-.169,2.084-1.862,1.222-.812-.414-2.024.349-3.1.438-.874.073-.923.347-1.047-.469-.094-.613-.8-.877-.656-1.568-.5.192-.294,1.04-.836.9-.6-.152-.666-.749-.7-1.348A83.985,83.985,0,0,1,.769,94.549a90.091,90.091,0,0,1,9.22-29.523A131.3,131.3,0,0,1,33.956,32.384,129.775,129.775,0,0,1,73.4,5.5c5.307-2.4,10.7-4.558,16.543-5.3.6-.076,1.2-.152,1.8-.186.486-.027,1.13-.144.712.74-.142.3-.06.667.28.543,1.43-.516,2.167.707,3.225,1.141,1.241.51,1.463,1.711,1.746,2.63.34,1.1-.43,1.885-1.7,2.331C84,11.614,73.385,18.347,63.27,25.911a149.633,149.633,0,0,0-37.24,39.8A101.014,101.014,0,0,0,13.688,93.907C13.253,95.534,12.779,97.149,12.323,98.77Z" data-name="Path 229" class="color24dac2 svgShape"></path><path fill="#fc72a6" fill-rule="evenodd" d="M33.743,93.629a8.911,8.911,0,0,0-1.436,4.78Zm1.784,6.412c.66-2.119,1.858-4.055,1.991-6.311A22.986,22.986,0,0,0,35.526,100.041Zm-.023,4.911c2.7-6.2,4.875-12.6,7.994-18.629C39.5,91.98,37.593,98.5,35.5,104.952Zm5.468-34.087c-7.961,8.126-13,21.008-13.13,28.712C30.382,88.972,30.7,88.272,40.971,70.865Zm28.341-12.98L71.078,56.3a6.569,6.569,0,0,1-1.755,2.963c-3.17,3.481-6.526,6.779-9.967,10-5.938,5.554-11.368,11.523-15.44,18.6a106.162,106.162,0,0,0-6.268,14.136,15.761,15.761,0,0,1-1.921,3.935c-.488.627-1.613.84-2.081,1.7-.676-.371.007-1-.431-1.342-1.024.525-1.9,1.86-3.272.5-.188-.186-.4.391-.592.617a1.344,1.344,0,0,1-1.6.485,1.558,1.558,0,0,1-1.15-1.407c-.133-1.092.42-2.077.414-3.333-.887.514-.641,1.328-.933,1.883-.2.388-.1,1.105-.807,1.057-.65-.043-.9-.58-1-1.14a7.024,7.024,0,0,1-.105-1.46A56.7,56.7,0,0,1,37,69.267a74.07,74.07,0,0,1,14.1-13.9,27.351,27.351,0,0,1,8.8-4.011,2.753,2.753,0,0,1,2.941.406,1.514,1.514,0,0,0,.915.274c2.6.125,4.377,1.773,6.1,3.371C70.57,56.071,69.229,56.778,69.312,57.884Z" data-name="Path 230" class="color24dac2 svgShape"></path><path fill="#fc72a6" fill-rule="evenodd" d="M8.529,110.827c1.157-3.23,1.432-6.652,2.819-9.951C11.609,102.271,9.7,109.146,8.529,110.827Z" data-name="Path 231" class="color24dac2 svgShape"></path></svg></g></svg>