<svg id="SvgjsSvg1001" width="288" height="288" xmlns="http://www.w3.org/2000/svg" version="1.1" xmlns:xlink="http://www.w3.org/1999/xlink" xmlns:svgjs="http://svgjs.com/svgjs"><defs id="SvgjsDefs1002"></defs><g id="SvgjsG1008"><svg xmlns="http://www.w3.org/2000/svg" viewBox="0 0 120 120" width="288" height="288"><path d="M116.333,3H9.667A6.667,6.667,0,0,0,3,9.667V116.333A6.667,6.667,0,0,0,9.667,123H67.1V76.6H51.513V58.433H67.1V45.1c0-15.5,9.467-23.947,23.333-23.947a130.382,130.382,0,0,1,13.967.713V38H94.833c-7.52,0-8.987,3.587-8.987,8.833V58.4h17.98l-2.333,18.167H85.84V123h30.493A6.667,6.667,0,0,0,123,116.333V9.667A6.667,6.667,0,0,0,116.333,3Z" data-name="bxl-facebook-square (2)" transform="translate(-3 -3)" fill="#ffffff" class="color000 svgShape"></path></svg></g></svg>