<svg xmlns="http://www.w3.org/2000/svg" width="121" height="121" viewBox="0 0 121 121">
  <g id="Gluten" transform="translate(10789.151 -2748.5)">
    <path id="Path_42" data-name="Path 42" d="M198.88,68.879a60,60,0,1,0,60,60A60.043,60.043,0,0,0,198.88,68.879Zm56.817,60a56.22,56.22,0,0,1-15.6,38.992l-29.125-29.125a18.9,18.9,0,0,0,3.66-4.775,2.692,2.692,0,0,0,.16-1.113c5.729-2.228,9.072-7.639,9.708-8.754l8.912-8.912a1.575,1.575,0,1,0-2.228-2.228l-8.276,8.276a22.008,22.008,0,0,0-4.775-1.751A17.471,17.471,0,0,0,221,117.262c4.615-4.615,5.093-10.982,5.093-13.21l4.933-4.933a1.575,1.575,0,0,0-2.228-2.228l-4.932,4.933c-2.228,0-8.754.636-13.051,5.093a15.131,15.131,0,0,0-2.387,3.183,17.522,17.522,0,0,0-1.909-5.252l8.276-8.276a1.575,1.575,0,0,0-2.228-2.228l-8.912,8.912c-1.115.636-6.525,4.138-8.754,9.867-.319,0-.477,0-.636.159a36.235,36.235,0,0,0-4.775,3.66l-29.6-29.284a56.738,56.738,0,0,1,95.809,41.22Zm-68.117-3.343a10.807,10.807,0,0,1,1.909-3.82l6.048,6.048c-1.115,4.3-4.615,7.162-6.525,8.594-.954-2.227-2.546-6.524-1.432-10.822Zm22.6-3.023c4.3-1.115,8.594.319,10.663,1.273-1.432,1.909-4.3,5.411-8.594,6.525a.962.962,0,0,1-.637.159,21.052,21.052,0,0,0-7.958-1.751,7.765,7.765,0,0,0-1.909.159,15.338,15.338,0,0,1,8.435-6.365Zm-1.273-3.5c.159-2.387,1.115-6.843,4.138-9.867s7.48-3.82,9.867-4.138a15.588,15.588,0,0,1-4.138,9.867C215.592,118.057,211.135,118.852,208.907,119.012Zm-3.82-1.592a15.835,15.835,0,0,1-6.207,8.276,21.317,21.317,0,0,0-1.909-9.867,1.2,1.2,0,0,1,.159-.636c1.115-4.138,4.615-7.161,6.525-8.594,1.113,2.227,2.705,6.523,1.432,10.821ZM191.4,119.171a15.227,15.227,0,0,1,2.705-2.228,19.1,19.1,0,0,1,1.751,6.684Zm2.387,17.188.159-.159a15.221,15.221,0,0,1,6.207-3.82l6.048,6.048a14.3,14.3,0,0,1-3.82,1.909,10.253,10.253,0,0,1-3.183.477,17.822,17.822,0,0,1-7.48-1.751,13.658,13.658,0,0,1,2.069-2.705Zm10.5-4.3a20.147,20.147,0,0,1,6.684,1.751,15.227,15.227,0,0,1-2.228,2.705Zm-62.228-3.183a56.22,56.22,0,0,1,15.6-38.992L187.1,119.33a16.088,16.088,0,0,0-2.547,5.252c-1.751,6.365,1.273,12.572,2.228,14.164l-22.439,22.6a1.539,1.539,0,0,0,0,2.228,1.54,1.54,0,0,0,2.229,0l22.441-22.441a23.489,23.489,0,0,0,10.186,2.705,14.9,14.9,0,0,0,9.231-3.024L237.715,170.1a56.626,56.626,0,0,1-95.653-41.218Z" transform="translate(-10927.531 2680.121)" fill="#fff" stroke="#fff" stroke-width="1"/>
  </g>
</svg>
