<svg xmlns="http://www.w3.org/2000/svg" width="121.115" height="121.065" viewBox="0 0 121.115 121.065">
  <g id="Healthy_Organic" data-name="Healthy /Organic" transform="translate(10301.447 -2748.435)">
    <path id="Path_77" data-name="Path 77" d="M245.252,115.748a1.5,1.5,0,0,0-1.331-1.332c-1.262-.135-31.017-3.153-43.638,9.484a25.2,25.2,0,0,0-2.973,31.936c-4.4,4.5-7.859,8.433-10.085,11.065V119.006a25.132,25.132,0,0,0,23.6-25.06c0-17.874-23.172-36.811-24.159-37.606a1.5,1.5,0,0,0-1.885,0c-.987.8-24.159,19.732-24.159,37.606a25.131,25.131,0,0,0,23.6,25.06V167.1c-2.219-2.631-5.736-6.638-10.249-11.258A25.2,25.2,0,0,0,171,123.9h0c-12.623-12.64-42.38-9.62-43.638-9.484a1.5,1.5,0,0,0-1.332,1.332c-.135,1.263-3.15,31.06,9.47,43.7a24.919,24.919,0,0,0,17.749,7.362h0A24.922,24.922,0,0,0,171,159.455c.394-.4.748-.816,1.11-1.231,6.461,6.644,10.79,11.945,12.04,13.509a1.41,1.41,0,0,0,.069.21V174.5a1.5,1.5,0,1,0,3,0v-2.891c1.361-1.7,5.636-6.907,11.945-13.395.364.415.717.837,1.112,1.233a25.081,25.081,0,0,0,35.5,0c12.619-12.639,9.6-42.438,9.469-43.7Zm-73.424,37.914c-8.281-8.247-19.364-17.948-31.7-25.186a1.5,1.5,0,1,0-1.517,2.586c12.246,7.184,23.238,16.855,31.4,25.018-.363.423-.725.846-1.125,1.247a22.077,22.077,0,0,1-31.255,0c-10.245-10.261-9.136-34.323-8.714-40.033,5.7-.424,29.726-1.532,39.969,8.726a22.2,22.2,0,0,1,2.943,27.642Zm13.9-69.607a1.5,1.5,0,0,0-1.5,1.5v30.449a22.132,22.132,0,0,1-20.6-22.06c0-14.51,17.768-30.736,22.1-34.478,4.334,3.742,22.1,19.969,22.1,34.478a22.132,22.132,0,0,1-20.6,22.06V85.556a1.5,1.5,0,0,0-1.5-1.5Zm47.935,73.274a22.077,22.077,0,0,1-31.255,0c-.4-.4-.764-.826-1.127-1.249,8.16-8.161,19.151-17.83,31.4-25.017a1.5,1.5,0,1,0-1.517-2.586c-12.341,7.238-23.423,16.939-31.7,25.186a22.2,22.2,0,0,1,2.944-27.642c10.243-10.258,34.264-9.149,39.969-8.726.423,5.71,1.531,29.772-8.714,40.033Z" transform="translate(-10426.531 2692.995)" fill="#fff" stroke="#fff" stroke-width="1"/>
  </g>
</svg>
