<svg id="SvgjsSvg1001" width="288" height="288" xmlns="http://www.w3.org/2000/svg" version="1.1" xmlns:xlink="http://www.w3.org/1999/xlink" xmlns:svgjs="http://svgjs.com/svgjs"><defs id="SvgjsDefs1002"></defs><g id="SvgjsG1008"><svg xmlns="http://www.w3.org/2000/svg" viewBox="0 0 119.801 120" width="288" height="288"><g data-name="bxl-instagram-alt (5)" transform="translate(-2.996 -2.981)" fill="#ffffff" class="color000 svgShape"><path d="M122.412,38.4a43.442,43.442,0,0,0-2.787-14.742A30.669,30.669,0,0,0,102.108,6.141,43.947,43.947,0,0,0,87.565,3.347c-6.4-.286-8.429-.366-24.675-.366s-18.328,0-24.681.366A43.947,43.947,0,0,0,23.673,6.141,30.649,30.649,0,0,0,6.157,23.657,43.6,43.6,0,0,0,3.37,38.193C3.083,44.6,3,46.629,3,62.875S3,81.2,3.37,87.556a43.877,43.877,0,0,0,2.787,14.549,30.669,30.669,0,0,0,17.523,17.51,43.8,43.8,0,0,0,14.536,2.994c6.406.286,8.436.373,24.681.373s18.328,0,24.681-.373a43.841,43.841,0,0,0,14.543-2.787A30.7,30.7,0,0,0,119.637,102.3a43.813,43.813,0,0,0,2.787-14.549c.286-6.4.373-8.429.373-24.681S122.784,44.766,122.412,38.4ZM62.851,93.6A30.755,30.755,0,1,1,93.606,62.841,30.748,30.748,0,0,1,62.851,93.6ZM94.83,38.12a7.17,7.17,0,1,1,7.165-7.172A7.165,7.165,0,0,1,94.83,38.12Z" data-name="Path 281" fill="#ffffff" class="color000 svgShape"></path><circle cx="19.978" cy="19.978" r="19.978" data-name="Ellipse 8" transform="translate(42.873 42.863)" fill="#ffffff" class="color000 svgShape"></circle></g></svg></g></svg>