<svg xmlns="http://www.w3.org/2000/svg" width="173.539" height="167.172" viewBox="0 0 173.539 167.172">
  <g id="Group_40" data-name="Group 40" transform="translate(1808.5 992.716) rotate(60)">
    <g id="Group_8" data-name="Group 8" transform="translate(-1830.34 933.84)">
      <path id="Path_30" data-name="Path 30" d="M223.23,133.16c17.93-9.77,15.28-27.68,15.28-27.68C220.58,115.25,223.23,133.16,223.23,133.16Z" fill="#fc72a6"/>
      <path id="Path_31" data-name="Path 31" d="M205.28,107.12c18.8,7.96,17.93,26.04,17.93,26.04C204.41,125.2,205.28,107.12,205.28,107.12Z" fill="#fc72a6"/>
    </g>
    <g id="Group_9" data-name="Group 9" transform="translate(-1830.34 933.84)">
      <path id="Path_32" data-name="Path 32" d="M225.53,108.11c17.59-10.37,14.33-28.18,14.33-28.18C222.28,90.3,225.53,108.11,225.53,108.11Z" fill="#fc72a6"/>
      <path id="Path_33" data-name="Path 33" d="M201.32,87.78c20.24,2.67,24.21,20.33,24.21,20.33C205.29,105.44,201.32,87.78,201.32,87.78Z" fill="#fc72a6"/>
    </g>
    <g id="Group_10" data-name="Group 10" transform="translate(-1830.34 933.84)">
      <path id="Path_34" data-name="Path 34" d="M194.07,73.27c20.16-3.21,29.01,12.58,29.01,12.58C202.91,89.06,194.07,73.27,194.07,73.27Z" fill="#fc72a6"/>
      <path id="Path_35" data-name="Path 35" d="M222.88,85.88c13.28-15.51,4.44-31.3,4.44-31.3C214.03,70.09,222.88,85.88,222.88,85.88Z" fill="#fc72a6"/>
    </g>
    <g id="Group_11" data-name="Group 11" transform="translate(-1830.34 933.84)">
      <path id="Path_36" data-name="Path 36" d="M169.28,50.84c16.71-11.73,31.58-1.42,31.58-1.42C184.16,61.16,169.28,50.84,169.28,50.84Z" fill="#fc72a6"/>
      <path id="Path_37" data-name="Path 37" d="M200.96,49.43c1.71-20.35-14.69-28-14.69-28C184.55,41.78,200.96,49.43,200.96,49.43Z" fill="#fc72a6"/>
    </g>
    <g id="Group_12" data-name="Group 12" transform="translate(-1830.34 933.84)">
      <path id="Path_38" data-name="Path 38" d="M152.28,41.98c15.18-13.65,31.19-5.2,31.19-5.2C168.29,50.43,152.28,41.98,152.28,41.98Z" fill="#fc72a6"/>
      <path id="Path_39" data-name="Path 39" d="M183.48,36.76c.69-20.41-16.07-27.22-16.07-27.22C166.71,29.94,183.48,36.76,183.48,36.76Z" fill="#fc72a6"/>
    </g>
    <path id="Path_40" data-name="Path 40" d="M163.85,28.62c-15.61-13.16-31.33-4.21-31.33-4.21C148.12,37.58,163.85,28.62,163.85,28.62Z" transform="translate(-1830.34 933.84)" fill="#fc72a6"/>
    <g id="Group_13" data-name="Group 13" transform="translate(-1830.34 933.84)">
      <path id="Path_41" data-name="Path 41" d="M214.86,67.02c7.15-19.13-6.58-30.92-6.58-30.92C201.13,55.22,214.86,67.02,214.86,67.02Z" fill="#fc72a6"/>
      <path id="Path_42" data-name="Path 42" d="M184.81,57.18c19.78-5.07,30.04,9.84,30.04,9.84C195.07,72.09,184.81,57.18,184.81,57.18Z" fill="#fc72a6"/>
    </g>
    <path id="Path_50" data-name="Path 50" d="M162.66,28.54h0c34.68,9.09,60.35,42.93,60.35,80.43a80.985,80.985,0,0,1-60.35,78.2v4.43a85.254,85.254,0,0,0,64.65-82.63C227.31,69.1,199.75,37.74,162.66,28.54Z" transform="translate(-1830.34 933.84)" fill="#fc72a6"/>
  </g>
</svg>