<svg id="SvgjsSvg1001" width="288" height="288" xmlns="http://www.w3.org/2000/svg" version="1.1" xmlns:xlink="http://www.w3.org/1999/xlink" xmlns:svgjs="http://svgjs.com/svgjs"><defs id="SvgjsDefs1002"></defs><g id="SvgjsG1008"><svg xmlns="http://www.w3.org/2000/svg" viewBox="0 0 120 120" width="288" height="288"><path d="M116.333,3H9.667A6.667,6.667,0,0,0,3,9.667V116.333A6.667,6.667,0,0,0,9.667,123H116.333A6.667,6.667,0,0,0,123,116.333V9.667A6.667,6.667,0,0,0,116.333,3ZM38.593,105.247H20.78V47.98H38.593ZM29.687,40.16a10.32,10.32,0,1,1,10.32-10.32,10.32,10.32,0,0,1-10.32,10.32Zm75.567,65.087H87.46V77.4c0-6.64-.12-15.18-9.253-15.18-9.267,0-10.673,7.24-10.673,14.713v28.32H49.753V47.987H66.82v7.827h.247c2.367-4.5,8.18-9.247,16.827-9.247,18.027,0,21.353,11.853,21.353,27.28v31.4Z" data-name="bxl-linkedin-square (4)" transform="translate(-3 -3)" fill="#ffffff" class="color000 svgShape"></path></svg></g></svg>