<?xml version="1.0" encoding="utf-8"?>
<!-- Generator: Adobe Illustrator 25.3.1, SVG Export Plug-In . SVG Version: 6.00 Build 0)  -->
<svg version="1.1" id="Layer_1" xmlns="http://www.w3.org/2000/svg" xmlns:xlink="http://www.w3.org/1999/xlink" x="0px" y="0px"
	 viewBox="0 0 595.28 220.61" style="enable-background:new 0 0 595.28 220.61;" xml:space="preserve">
<style type="text/css">
	.st0{fill:#FC72A6;}
	.st1{fill:#00DAC2;}
</style>
<g>
	<g>
		<path class="st0" d="M250.92,154.96c0,1.49-0.2,2.77-0.59,3.83c-0.39,1.06-0.95,1.93-1.68,2.6c-0.73,0.67-1.62,1.16-2.66,1.48
			c-1.04,0.31-2.29,0.47-3.73,0.47h-3.89c-0.28,0-0.51-0.08-0.7-0.25c-0.19-0.16-0.28-0.43-0.28-0.8V148.1
			c0-0.37,0.09-0.64,0.28-0.8c0.19-0.16,0.42-0.25,0.7-0.25h4.18c1.45,0,2.68,0.17,3.69,0.51c1.01,0.34,1.86,0.84,2.55,1.51
			c0.69,0.67,1.22,1.49,1.58,2.47C250.73,152.53,250.92,153.67,250.92,154.96z M247.49,155.07c0-0.77-0.09-1.49-0.27-2.15
			c-0.18-0.66-0.47-1.24-0.87-1.72c-0.4-0.49-0.91-0.87-1.54-1.14c-0.63-0.27-1.45-0.41-2.46-0.41h-1.67v11.07h1.72
			c0.91,0,1.67-0.12,2.29-0.35c0.62-0.23,1.14-0.59,1.55-1.06c0.42-0.47,0.73-1.06,0.93-1.77
			C247.39,156.83,247.49,156.01,247.49,155.07z"/>
		<path class="st0" d="M292.69,157.27c0,1-0.15,1.89-0.44,2.68c-0.29,0.79-0.73,1.46-1.3,2c-0.57,0.55-1.28,0.96-2.11,1.25
			c-0.84,0.29-1.8,0.43-2.89,0.43c-1.02,0-1.94-0.13-2.76-0.38c-0.81-0.26-1.5-0.64-2.06-1.16c-0.56-0.52-0.99-1.17-1.29-1.94
			c-0.3-0.78-0.45-1.68-0.45-2.72v-9.9c0-0.08,0.03-0.16,0.08-0.23c0.05-0.07,0.14-0.12,0.27-0.16c0.13-0.04,0.3-0.08,0.51-0.1
			c0.21-0.03,0.48-0.04,0.81-0.04c0.32,0,0.58,0.01,0.79,0.04c0.21,0.02,0.38,0.06,0.5,0.1c0.13,0.04,0.22,0.1,0.27,0.16
			c0.05,0.07,0.08,0.14,0.08,0.23v9.61c0,0.65,0.08,1.21,0.24,1.68s0.39,0.87,0.69,1.18c0.3,0.31,0.65,0.54,1.07,0.7
			c0.42,0.16,0.88,0.23,1.39,0.23c0.52,0,0.99-0.08,1.4-0.24c0.41-0.16,0.76-0.39,1.04-0.7c0.29-0.31,0.51-0.68,0.66-1.13
			c0.16-0.45,0.23-0.96,0.23-1.53v-9.8c0-0.08,0.03-0.16,0.08-0.23c0.05-0.07,0.14-0.12,0.26-0.16c0.13-0.04,0.3-0.08,0.51-0.1
			c0.21-0.03,0.48-0.04,0.8-0.04s0.58,0.01,0.79,0.04c0.21,0.02,0.37,0.06,0.5,0.1s0.21,0.1,0.26,0.16
			c0.05,0.07,0.08,0.14,0.08,0.23V157.27z"/>
		<path class="st0" d="M333.79,158.46c0,0.58-0.08,1.1-0.24,1.57c-0.16,0.47-0.38,0.89-0.66,1.25c-0.28,0.36-0.62,0.67-1.01,0.93
			c-0.39,0.26-0.82,0.47-1.29,0.64c-0.47,0.17-0.97,0.29-1.5,0.37c-0.53,0.08-1.13,0.12-1.78,0.12h-4.33c-0.28,0-0.51-0.08-0.7-0.25
			c-0.19-0.16-0.28-0.43-0.28-0.8V148.1c0-0.37,0.09-0.64,0.28-0.8c0.19-0.16,0.42-0.25,0.7-0.25h4.09c1,0,1.84,0.08,2.54,0.25
			c0.69,0.17,1.28,0.42,1.75,0.76c0.47,0.34,0.84,0.77,1.09,1.29c0.25,0.52,0.38,1.13,0.38,1.84c0,0.39-0.05,0.77-0.15,1.11
			s-0.25,0.66-0.44,0.95c-0.19,0.29-0.43,0.54-0.71,0.76c-0.28,0.22-0.6,0.39-0.96,0.53c0.46,0.08,0.89,0.23,1.28,0.44
			c0.39,0.21,0.73,0.48,1.02,0.81c0.29,0.33,0.52,0.72,0.69,1.16C333.71,157.4,333.79,157.9,333.79,158.46z M329.51,151.6
			c0-0.33-0.05-0.62-0.15-0.88c-0.1-0.26-0.25-0.48-0.45-0.65s-0.46-0.3-0.76-0.4c-0.31-0.09-0.72-0.14-1.23-0.14h-1.67v4.23h1.85
			c0.48,0,0.86-0.06,1.14-0.17c0.29-0.11,0.52-0.27,0.71-0.47c0.19-0.2,0.33-0.43,0.42-0.69
			C329.46,152.17,329.51,151.89,329.51,151.6z M330.35,158.57c0-0.38-0.06-0.71-0.19-1.01c-0.13-0.3-0.31-0.55-0.55-0.75
			c-0.24-0.2-0.55-0.36-0.93-0.47s-0.87-0.16-1.47-0.16h-1.96v4.63h2.39c0.46,0,0.85-0.05,1.16-0.14c0.31-0.1,0.59-0.24,0.82-0.43
			c0.23-0.19,0.41-0.42,0.54-0.7C330.29,159.25,330.35,158.93,330.35,158.57z"/>
		<path class="st0" d="M375.3,162.11c0.1,0.3,0.16,0.54,0.19,0.72c0.03,0.18-0.01,0.31-0.1,0.4c-0.09,0.09-0.26,0.14-0.49,0.16
			c-0.23,0.02-0.56,0.03-0.97,0.03c-0.43,0-0.76-0.01-1-0.02c-0.24-0.01-0.42-0.04-0.55-0.08c-0.13-0.04-0.21-0.09-0.26-0.16
			c-0.05-0.07-0.09-0.15-0.13-0.26l-1.09-3.27h-6.12l-1.03,3.18c-0.03,0.12-0.08,0.22-0.13,0.3c-0.05,0.08-0.14,0.14-0.26,0.19
			c-0.12,0.05-0.29,0.08-0.52,0.09c-0.22,0.02-0.51,0.03-0.87,0.03c-0.39,0-0.69-0.01-0.91-0.04c-0.22-0.03-0.37-0.09-0.45-0.18
			c-0.08-0.1-0.11-0.23-0.09-0.41c0.03-0.18,0.09-0.41,0.19-0.7l5.02-14.45c0.05-0.14,0.11-0.26,0.18-0.35
			c0.07-0.09,0.17-0.15,0.32-0.2c0.15-0.05,0.35-0.08,0.61-0.09c0.26-0.01,0.6-0.02,1.03-0.02c0.49,0,0.89,0.01,1.18,0.02
			c0.29,0.01,0.52,0.04,0.69,0.09c0.16,0.05,0.28,0.12,0.35,0.21c0.07,0.09,0.13,0.22,0.18,0.38L375.3,162.11z M367.83,150.16h-0.01
			l-2.3,6.92h4.62L367.83,150.16z"/>
		<path class="st0" d="M406.67,162.89c0,0.08-0.03,0.16-0.08,0.23c-0.05,0.07-0.14,0.12-0.27,0.16c-0.13,0.04-0.29,0.08-0.5,0.1
			c-0.21,0.02-0.48,0.04-0.81,0.04c-0.32,0-0.59-0.01-0.8-0.04c-0.21-0.03-0.38-0.06-0.51-0.1c-0.13-0.04-0.22-0.1-0.27-0.16
			c-0.05-0.07-0.08-0.14-0.08-0.23v-15.38c0-0.08,0.03-0.16,0.08-0.23c0.05-0.07,0.15-0.12,0.28-0.16c0.13-0.04,0.3-0.08,0.51-0.1
			c0.21-0.03,0.47-0.04,0.79-0.04c0.33,0,0.6,0.01,0.81,0.04c0.21,0.02,0.38,0.06,0.5,0.1c0.13,0.04,0.22,0.1,0.27,0.16
			c0.05,0.07,0.08,0.14,0.08,0.23V162.89z"/>
	</g>
	<path class="st1" d="M285.97,109.02c0,2.18-0.41,4.09-1.22,5.73c-0.81,1.65-1.91,3.02-3.3,4.12c-1.39,1.1-3.01,1.93-4.87,2.48
		c-1.86,0.55-3.84,0.83-5.96,0.83c-1.43,0-2.76-0.12-3.99-0.35c-1.23-0.24-2.31-0.52-3.25-0.85c-0.94-0.33-1.73-0.68-2.35-1.04
		c-0.63-0.36-1.08-0.68-1.36-0.96c-0.28-0.28-0.48-0.68-0.59-1.2c-0.12-0.52-0.18-1.28-0.18-2.26c0-0.66,0.02-1.22,0.06-1.67
		c0.04-0.45,0.11-0.81,0.21-1.09c0.1-0.28,0.22-0.48,0.38-0.59c0.16-0.12,0.35-0.18,0.56-0.18c0.3,0,0.72,0.18,1.27,0.53
		c0.54,0.35,1.24,0.74,2.1,1.17c0.85,0.43,1.87,0.82,3.06,1.17s2.56,0.53,4.12,0.53c1.03,0,1.94-0.12,2.76-0.37
		c0.81-0.25,1.5-0.59,2.07-1.04c0.57-0.45,1-1,1.3-1.67c0.3-0.66,0.45-1.4,0.45-2.21c0-0.94-0.26-1.75-0.77-2.42
		c-0.51-0.67-1.18-1.27-2-1.79c-0.82-0.52-1.76-1.01-2.8-1.47c-1.05-0.46-2.13-0.94-3.24-1.46c-1.11-0.51-2.19-1.09-3.24-1.75
		c-1.05-0.65-1.98-1.43-2.8-2.34c-0.82-0.91-1.49-1.98-2-3.22c-0.51-1.24-0.77-2.72-0.77-4.45c0-1.99,0.37-3.73,1.11-5.24
		c0.74-1.51,1.73-2.76,2.98-3.75c1.25-0.99,2.72-1.73,4.42-2.23c1.7-0.49,3.5-0.74,5.4-0.74c0.98,0,1.96,0.08,2.95,0.22
		c0.98,0.15,1.9,0.35,2.76,0.61c0.85,0.26,1.61,0.54,2.27,0.86c0.66,0.32,1.1,0.59,1.31,0.8c0.21,0.21,0.36,0.4,0.43,0.54
		c0.07,0.15,0.14,0.35,0.19,0.59c0.05,0.25,0.09,0.56,0.11,0.93c0.02,0.37,0.03,0.84,0.03,1.39c0,0.62-0.02,1.14-0.05,1.57
		c-0.03,0.43-0.09,0.78-0.16,1.06c-0.08,0.28-0.18,0.48-0.32,0.61c-0.14,0.13-0.33,0.19-0.56,0.19c-0.24,0-0.61-0.15-1.12-0.45
		c-0.51-0.3-1.14-0.62-1.89-0.98c-0.75-0.35-1.61-0.67-2.6-0.96c-0.98-0.29-2.06-0.43-3.24-0.43c-0.92,0-1.72,0.11-2.4,0.34
		c-0.68,0.22-1.25,0.53-1.71,0.93c-0.46,0.4-0.8,0.87-1.03,1.43c-0.22,0.56-0.34,1.14-0.34,1.76c0,0.92,0.25,1.71,0.75,2.39
		c0.5,0.67,1.17,1.27,2.02,1.79c0.84,0.52,1.8,1.02,2.87,1.47c1.07,0.46,2.16,0.95,3.27,1.46c1.11,0.51,2.2,1.09,3.27,1.75
		c1.07,0.65,2.02,1.43,2.85,2.34c0.83,0.91,1.51,1.98,2.02,3.2C285.71,105.91,285.97,107.36,285.97,109.02z"/>
	<path class="st1" d="M331.59,109.89c0-1.2,0.18-2.32,0.53-3.38c0.35-1.06,0.88-2.06,1.59-3c0.71-0.94,1.57-1.84,2.61-2.69
		c1.04-0.85,2.24-1.69,3.6-2.5c-0.77-0.98-1.44-1.91-2-2.77c-0.57-0.87-1.04-1.69-1.41-2.48c-0.37-0.79-0.65-1.54-0.83-2.26
		c-0.18-0.72-0.27-1.43-0.27-2.13c0-1.49,0.27-2.9,0.8-4.21c0.53-1.31,1.37-2.45,2.5-3.41c1.13-0.96,2.57-1.72,4.33-2.29
		c1.75-0.57,3.86-0.85,6.31-0.85c2.24,0,4.18,0.21,5.8,0.64c1.62,0.43,2.96,1.03,4,1.81c1.05,0.78,1.83,1.74,2.34,2.88
		c0.51,1.14,0.77,2.43,0.77,3.86c0,1.28-0.22,2.47-0.66,3.56c-0.44,1.09-1.1,2.13-1.99,3.11c-0.89,0.98-1.99,1.93-3.32,2.84
		c-1.32,0.91-2.87,1.82-4.65,2.74c0.58,0.66,1.22,1.36,1.94,2.1c0.72,0.74,1.45,1.47,2.21,2.21c0.76,0.74,1.52,1.47,2.29,2.19
		c0.77,0.73,1.52,1.4,2.24,2.02c0.28-0.43,0.53-0.92,0.75-1.47c0.22-0.55,0.42-1.14,0.58-1.76c0.16-0.62,0.29-1.25,0.38-1.89
		c0.1-0.64,0.14-1.27,0.14-1.89v-0.99c0-0.23,0.04-0.44,0.13-0.61c0.09-0.17,0.26-0.31,0.53-0.42c0.27-0.11,0.65-0.19,1.15-0.24
		c0.5-0.05,1.15-0.08,1.94-0.08c0.75,0,1.37,0.02,1.86,0.05c0.49,0.03,0.88,0.1,1.17,0.21c0.29,0.11,0.49,0.25,0.61,0.43
		c0.12,0.18,0.18,0.41,0.18,0.69v1.03c0,1.03-0.08,2.06-0.22,3.11c-0.15,1.05-0.37,2.07-0.66,3.06c-0.29,0.99-0.65,1.94-1.07,2.85
		c-0.43,0.91-0.9,1.76-1.41,2.55c0.75,0.58,1.39,1.06,1.94,1.44c0.54,0.38,1.01,0.69,1.39,0.91c0.38,0.22,0.71,0.38,0.96,0.46
		c0.26,0.09,0.47,0.13,0.64,0.13c0.23,0,0.45,0,0.66,0c0.2,0,0.37,0.08,0.5,0.22c0.13,0.15,0.22,0.42,0.29,0.8s0.1,0.95,0.1,1.7
		c0,0.79-0.02,1.41-0.05,1.86c-0.03,0.45-0.09,0.78-0.16,0.99c-0.08,0.21-0.2,0.39-0.38,0.53c-0.18,0.14-0.49,0.27-0.91,0.38
		c-0.43,0.12-0.94,0.18-1.54,0.18c-0.47,0-0.96-0.06-1.46-0.18c-0.5-0.12-1.08-0.34-1.75-0.67c-0.66-0.33-1.43-0.77-2.31-1.31
		c-0.88-0.54-1.89-1.24-3.04-2.1c-1,0.68-2.04,1.3-3.11,1.84c-1.07,0.54-2.18,1-3.35,1.36c-1.16,0.36-2.37,0.64-3.6,0.83
		c-1.24,0.19-2.56,0.29-3.97,0.29c-1.39,0-2.74-0.11-4.07-0.32c-1.32-0.21-2.57-0.54-3.73-0.98c-1.16-0.44-2.23-0.99-3.19-1.65
		c-0.96-0.66-1.78-1.45-2.47-2.35c-0.68-0.91-1.22-1.94-1.6-3.11C331.79,112.59,331.59,111.3,331.59,109.89z M340.31,109.44
		c0,0.92,0.17,1.76,0.51,2.53c0.34,0.77,0.83,1.43,1.47,1.99c0.64,0.56,1.44,0.99,2.39,1.3c0.95,0.31,2.05,0.46,3.28,0.46
		c0.64,0,1.28-0.06,1.91-0.18c0.63-0.12,1.25-0.28,1.86-0.48c0.61-0.2,1.19-0.45,1.73-0.74c0.54-0.29,1.05-0.6,1.52-0.94
		c-0.96-0.77-1.93-1.59-2.9-2.45c-0.97-0.86-1.92-1.74-2.84-2.61c-0.92-0.88-1.8-1.75-2.64-2.61c-0.84-0.86-1.6-1.68-2.26-2.45
		c-0.75,0.47-1.37,0.96-1.87,1.46c-0.5,0.5-0.91,1.01-1.23,1.52c-0.32,0.51-0.56,1.04-0.71,1.57
		C340.38,108.34,340.31,108.89,340.31,109.44z M343.9,88.26c0,0.45,0.07,0.91,0.22,1.39c0.15,0.48,0.36,0.98,0.62,1.51
		c0.27,0.52,0.6,1.08,1.01,1.67c0.41,0.59,0.86,1.22,1.38,1.91c1.26-0.68,2.31-1.31,3.16-1.89c0.84-0.58,1.52-1.14,2.03-1.68
		c0.51-0.54,0.88-1.09,1.09-1.63c0.21-0.54,0.32-1.11,0.32-1.68c0-0.51-0.1-0.99-0.29-1.44c-0.19-0.45-0.49-0.84-0.9-1.17
		c-0.41-0.33-0.91-0.59-1.51-0.79c-0.6-0.19-1.3-0.29-2.11-0.29c-0.9,0-1.66,0.1-2.29,0.3c-0.63,0.2-1.15,0.49-1.55,0.86
		c-0.41,0.37-0.7,0.81-0.9,1.31C343.99,87.15,343.9,87.69,343.9,88.26z"/>
	<path class="st1" d="M449.47,115.18c0,0.53-0.02,0.99-0.05,1.36c-0.03,0.37-0.08,0.69-0.14,0.96c-0.06,0.27-0.15,0.5-0.26,0.69
		c-0.11,0.19-0.28,0.41-0.51,0.66c-0.23,0.25-0.69,0.56-1.36,0.94c-0.67,0.38-1.5,0.75-2.47,1.11c-0.97,0.35-2.08,0.65-3.33,0.88
		c-1.25,0.23-2.6,0.35-4.05,0.35c-2.84,0-5.4-0.44-7.69-1.31c-2.29-0.88-4.23-2.18-5.83-3.92c-1.6-1.74-2.83-3.91-3.68-6.52
		c-0.85-2.61-1.28-5.64-1.28-9.1c0-3.52,0.47-6.65,1.41-9.39c0.94-2.73,2.25-5.03,3.94-6.89c1.69-1.86,3.71-3.27,6.07-4.23
		c2.36-0.96,4.96-1.44,7.8-1.44c1.15,0,2.26,0.1,3.33,0.29c1.07,0.19,2.06,0.44,2.96,0.75c0.91,0.31,1.72,0.67,2.45,1.07
		c0.73,0.41,1.23,0.75,1.52,1.04c0.29,0.29,0.49,0.53,0.59,0.72c0.11,0.19,0.19,0.44,0.26,0.74c0.06,0.3,0.11,0.65,0.14,1.06
		c0.03,0.41,0.05,0.91,0.05,1.51c0,0.64-0.02,1.19-0.06,1.63c-0.04,0.45-0.12,0.81-0.22,1.09c-0.11,0.28-0.24,0.48-0.38,0.61
		c-0.15,0.13-0.32,0.19-0.51,0.19c-0.32,0-0.73-0.19-1.22-0.56c-0.49-0.37-1.13-0.79-1.91-1.25s-1.71-0.88-2.79-1.25
		c-1.08-0.37-2.37-0.56-3.86-0.56c-1.65,0-3.11,0.34-4.41,1.01c-1.29,0.67-2.39,1.63-3.3,2.88c-0.91,1.25-1.6,2.76-2.07,4.53
		c-0.47,1.77-0.71,3.77-0.71,5.99c0,2.43,0.25,4.54,0.75,6.33c0.5,1.78,1.22,3.25,2.15,4.41c0.93,1.15,2.05,2.01,3.36,2.58
		c1.31,0.57,2.79,0.85,4.44,0.85c1.49,0,2.79-0.18,3.88-0.53c1.09-0.35,2.02-0.74,2.8-1.17c0.78-0.43,1.42-0.81,1.92-1.15
		c0.5-0.34,0.89-0.51,1.17-0.51c0.21,0,0.38,0.04,0.51,0.13c0.13,0.09,0.23,0.26,0.32,0.51c0.09,0.26,0.15,0.61,0.19,1.07
		C449.45,113.79,449.47,114.41,449.47,115.18z"/>
	<path class="st1" d="M505.46,100.25c0,3.44-0.43,6.51-1.28,9.23c-0.85,2.71-2.13,5.01-3.81,6.9c-1.69,1.89-3.78,3.33-6.26,4.33
		c-2.49,0.99-5.37,1.49-8.63,1.49c-3.23,0-6.04-0.42-8.44-1.27c-2.4-0.84-4.41-2.13-6.01-3.86c-1.6-1.73-2.8-3.93-3.6-6.6
		c-0.8-2.67-1.2-5.83-1.2-9.48c0-3.35,0.43-6.37,1.28-9.05c0.85-2.68,2.13-4.96,3.81-6.84c1.69-1.88,3.77-3.32,6.26-4.33
		c2.49-1,5.38-1.51,8.67-1.51c3.14,0,5.91,0.42,8.31,1.25c2.4,0.83,4.41,2.11,6.02,3.84c1.61,1.73,2.83,3.91,3.65,6.55
		C505.05,93.54,505.46,96.66,505.46,100.25z M496.62,100.69c0-2.18-0.17-4.16-0.51-5.94c-0.34-1.78-0.92-3.31-1.75-4.58
		c-0.82-1.27-1.92-2.25-3.28-2.95c-1.37-0.69-3.08-1.04-5.13-1.04c-2.07,0-3.8,0.39-5.19,1.17c-1.39,0.78-2.51,1.82-3.36,3.12
		c-0.85,1.3-1.46,2.82-1.81,4.57c-0.35,1.74-0.53,3.58-0.53,5.53c0,2.26,0.17,4.3,0.51,6.1c0.34,1.8,0.92,3.35,1.73,4.63
		c0.81,1.28,1.9,2.26,3.27,2.93s3.09,1.01,5.16,1.01c2.07,0,3.8-0.38,5.19-1.15c1.39-0.77,2.51-1.82,3.36-3.14
		c0.85-1.32,1.46-2.87,1.81-4.63C496.44,104.56,496.62,102.68,496.62,100.69z"/>
	<g>
		<path class="st1" d="M515.32,122.99c-1.94,0-3.41-1.35-3.41-3.57c0-1.94,1.47-3.45,3.49-3.45c2.02,0,3.45,1.51,3.45,3.45
			c0,2.22-1.43,3.57-3.45,3.57H515.32z"/>
	</g>
	<g>
		<path class="st1" d="M62.56,92.61c0,26.32,21.41,47.73,47.71,47.73c19.36,0,35.52-11.98,43-28.56c-0.24,0.44-0.87,1.31-1.3,1.78
			c-5.43,8.13-13.48,14.36-22.94,17.4c4.21-3.18,6.94-8.23,6.94-13.9c0-9.03-6.93-16.35-15.77-17.17c7.3,1.71,12.74,8.5,12.74,16.31
			c0,9.1-7.76,16.89-16.87,16.89c-0.87,0-1.48,0.02-2.52-0.06c-23.21-1.07-41.73-20.28-41.73-43.73c0-22.32,16.82-41.16,38.44-43.79
			C83.97,45.5,62.56,66.31,62.56,92.61z"/>
		<path class="st1" d="M113.23,53.73c22.42,0.26,36.22,18.82,36.22,41.33c0,18.61-12.47,34.37-29.5,39.39c0.3,0,0.61,0.02,0.89,0.04
			c0.14,0.02,0.28,0.04,0.41,0.06c0.24,0.02,0.49,0.06,0.71,0.12c16.85-5.31,29.14-21.05,29.14-39.62
			c0-22.95-14.31-41.35-37.24-41.35C113.66,53.7,113.44,53.71,113.23,53.73L113.23,53.73z"/>
		<path class="st1" d="M149.78,91.01c9.21-4.85,7.99-13.99,7.99-13.99C148.56,81.87,149.78,91.01,149.78,91.01z"/>
		<path class="st1" d="M149.24,107.5c9.56-4.11,9.07-13.32,9.07-13.32C148.75,98.29,149.24,107.5,149.24,107.5z"/>
		<path class="st1" d="M141.31,93.81c9.16,4.93,7.86,14.06,7.86,14.06C140.01,102.95,141.31,93.81,141.31,93.81z"/>
		<path class="st1" d="M134.74,72.07c10.37-0.81,14.22,7.57,14.22,7.57C138.58,80.45,134.74,72.07,134.74,72.07z"/>
		<path class="st1" d="M137.61,80.84c10.36,0.92,12.76,9.83,12.76,9.83C140.01,89.75,137.61,80.84,137.61,80.84z"/>
		<path class="st1" d="M119.78,61.92c8.52-5.98,16.1-0.72,16.1-0.72C127.36,67.18,119.78,61.92,119.78,61.92z"/>
		<path class="st1" d="M110.47,60.14c6.96-7.73,15.53-4.3,15.53-4.3C119.03,63.57,110.47,60.14,110.47,60.14z"/>
		<path class="st1" d="M148.9,80.21c7.38-7.34,3.53-15.72,3.53-15.72C145.06,71.83,148.9,80.21,148.9,80.21z"/>
		<path class="st1" d="M135.81,61.04c0.87-10.37-7.49-14.27-7.49-14.27C127.46,57.14,135.81,61.04,135.81,61.04z"/>
		<path class="st1" d="M125.79,56.11c-0.74-10.38-9.6-12.94-9.6-12.94C116.93,53.55,125.79,56.11,125.79,56.11z"/>
		<path class="st1" d="M113.23,53.68c-9.07-5.1-16.09,0.88-16.09,0.88C106.21,59.66,113.23,53.68,113.23,53.68z"/>
		<path class="st1" d="M143.98,69.53c3.07-9.94-4.27-15.54-4.27-15.54C136.65,63.94,143.98,69.53,143.98,69.53z"/>
		<path class="st1" d="M128.41,65.64c9.91-3.17,15.58,4.11,15.58,4.11C134.08,72.92,128.41,65.64,128.41,65.64z"/>
	</g>
	<path class="st1" d="M202.31,118.32c0.26,0.77,0.42,1.38,0.48,1.83c0.06,0.45-0.02,0.78-0.26,1.01c-0.24,0.22-0.65,0.36-1.25,0.42
		c-0.6,0.05-1.42,0.08-2.47,0.08c-1.09,0-1.94-0.02-2.55-0.05c-0.61-0.03-1.07-0.1-1.39-0.19c-0.32-0.1-0.54-0.23-0.67-0.4
		c-0.13-0.17-0.24-0.4-0.32-0.67l-2.79-8.33h-15.57l-2.63,8.11c-0.09,0.3-0.2,0.55-0.34,0.75c-0.14,0.2-0.36,0.36-0.67,0.48
		c-0.31,0.12-0.75,0.2-1.31,0.24c-0.57,0.04-1.31,0.06-2.23,0.06c-0.98,0-1.75-0.03-2.31-0.1c-0.56-0.06-0.94-0.22-1.15-0.46
		c-0.21-0.25-0.29-0.59-0.22-1.04s0.22-1.05,0.48-1.79l12.78-36.78c0.13-0.36,0.28-0.66,0.45-0.88c0.17-0.22,0.44-0.4,0.82-0.51
		c0.37-0.12,0.89-0.19,1.55-0.22c0.66-0.03,1.54-0.05,2.63-0.05c1.26,0,2.26,0.02,3.01,0.05c0.75,0.03,1.33,0.11,1.75,0.22
		c0.42,0.12,0.72,0.29,0.9,0.53c0.18,0.24,0.34,0.56,0.46,0.96L202.31,118.32z M183.28,87.91h-0.03l-5.86,17.62h11.76L183.28,87.91z
		"/>
	<path class="st1" d="M243.69,83.46c0,0.62-0.03,1.15-0.08,1.59c-0.05,0.44-0.13,0.79-0.24,1.06c-0.11,0.27-0.24,0.46-0.4,0.59
		c-0.16,0.13-0.34,0.19-0.53,0.19h-10.38v33.42c0,0.21-0.07,0.41-0.21,0.58c-0.14,0.17-0.37,0.31-0.69,0.42
		c-0.32,0.11-0.75,0.19-1.3,0.26c-0.54,0.06-1.22,0.1-2.03,0.1c-0.81,0-1.49-0.03-2.03-0.1c-0.54-0.06-0.98-0.15-1.3-0.26
		c-0.32-0.11-0.55-0.25-0.69-0.42c-0.14-0.17-0.21-0.36-0.21-0.58V86.89h-10.38c-0.21,0-0.4-0.06-0.54-0.19
		c-0.15-0.13-0.28-0.33-0.38-0.59c-0.11-0.27-0.19-0.62-0.24-1.06c-0.05-0.44-0.08-0.97-0.08-1.59c0-0.64,0.03-1.19,0.08-1.63
		c0.05-0.45,0.13-0.81,0.24-1.07c0.11-0.27,0.23-0.46,0.38-0.58c0.15-0.12,0.33-0.18,0.54-0.18h29.22c0.19,0,0.37,0.06,0.53,0.18
		c0.16,0.12,0.29,0.31,0.4,0.58c0.11,0.27,0.19,0.62,0.24,1.07C243.66,82.27,243.69,82.82,243.69,83.46z"/>
</g>
<g>
	<path class="st1" d="M395.91,371.68c13.32-8.04,28.85-12.92,45.57-13.53c-15.78,2.51-30.07,9.43-41.71,19.38
		C398.79,375.41,397.48,373.44,395.91,371.68z"/>
	<path class="st1" d="M525.22,489.23c0,0-0.05,0.13-0.1,0.23c-0.01,0.04-0.03,0.07-0.04,0.1c-14.54,32.12-47.11,54.45-84.97,54.45
		c-37.57,0-70.04-22.28-84.93-54.33c0.07-0.1,0.04-0.05,0.12-0.15c1.67,0.4,3.39,0.61,5.1,0.61c5.7,0,10.76-2.01,14.73-5.31
		c10.96,20.11,28.48,33.39,52.19,37.83c1.14,0.3,2.28,0.3,3.42,0.54c6.37,1.34,13.01,0.3,19.82-0.3c0.04,0,2.87-0.43,4.13-0.68
		c0.05-0.01,0.1-0.02,0.16-0.03c2.83-0.56,1.93-0.43,3.52-0.79c1.26-0.28,1.34-0.38,2.57-0.73c3.02-0.88,4.26-1.72,4.89-2.2
		c9.26-7.05,13.47-12.92,14.49-21.61c0.02-0.13,0.03-0.27,0.04-0.41c0.01-0.14,0.03-0.29,0.04-0.44
		c1.6-17.32-12.85-30.08-25.22-30.96c18.87,1.02,32.18,13.4,32.18,32.73c0,9.9-3.84,18.92-10.12,25.65c-1,1.08-2.06,2.09-3.18,3.04
		c-1.55,1.32-3.21,2.52-4.95,3.57c3.32-1.46,6.68-2.61,9.85-4.32C498.35,515.3,505.39,513.45,525.22,489.23z"/>
	<g>
		<path class="st1" d="M520.86,474.49c17.93-9.77,15.28-27.68,15.28-27.68C518.22,456.59,520.86,474.49,520.86,474.49z"/>
		<path class="st1" d="M502.92,448.46c18.8,7.96,17.93,26.04,17.93,26.04C502.05,466.54,502.92,448.46,502.92,448.46z"/>
	</g>
	<g>
		<path class="st1" d="M523.17,449.44c17.59-10.37,14.33-28.18,14.33-28.18C519.92,431.64,523.17,449.44,523.17,449.44z"/>
		<path class="st1" d="M498.96,429.11c20.24,2.67,24.21,20.33,24.21,20.33C502.93,446.77,498.96,429.11,498.96,429.11z"/>
	</g>
	<g>
		<path class="st1" d="M491.7,414.6c20.16-3.21,29.01,12.58,29.01,12.58C500.55,430.39,491.7,414.6,491.7,414.6z"/>
		<path class="st1" d="M520.51,427.21c13.28-15.51,4.44-31.3,4.44-31.3C511.67,411.42,520.51,427.21,520.51,427.21z"/>
	</g>
	<g>
		<path class="st1" d="M466.92,392.18c16.71-11.73,31.58-1.42,31.58-1.42C481.79,402.49,466.92,392.18,466.92,392.18z"/>
		<path class="st1" d="M498.6,390.76c1.71-20.35-14.69-28-14.69-28C482.19,383.11,498.6,390.76,498.6,390.76z"/>
	</g>
	<g>
		<path class="st1" d="M449.92,383.31c15.18-13.65,31.19-5.2,31.19-5.2C465.92,391.76,449.92,383.31,449.92,383.31z"/>
		<path class="st1" d="M481.11,378.09c0.69-20.41-16.07-27.22-16.07-27.22C464.35,371.27,481.11,378.09,481.11,378.09z"/>
	</g>
	<path class="st1" d="M461.49,369.95c-15.61-13.16-31.33-4.21-31.33-4.21C445.76,378.91,461.49,369.95,461.49,369.95z"/>
	<g>
		<path class="st1" d="M512.5,408.36c7.15-19.13-6.58-30.92-6.58-30.92C498.77,396.56,512.5,408.36,512.5,408.36z"/>
		<path class="st1" d="M482.45,398.51c19.78-5.07,30.04,9.84,30.04,9.84C492.71,413.42,482.45,398.51,482.45,398.51z"/>
	</g>
	<g>
		<path class="st1" d="M361.88,473.47c1.81-0.61,3.5-0.54,5.05,0.21c1.56,0.74,2.64,2.03,3.25,3.85c0.61,1.82,0.51,3.49-0.29,5.02
			s-2.1,2.59-3.91,3.2l-2.65,0.89c-1.8,0.6-3.48,0.54-5.04-0.2c-1.56-0.73-2.64-2-3.25-3.82c-0.61-1.82-0.52-3.51,0.28-5.05
			c0.8-1.54,2.1-2.61,3.9-3.21L361.88,473.47z M360.2,477.3c-1.15,0.38-1.99,0.98-2.53,1.8c-0.54,0.82-0.64,1.73-0.3,2.74
			c0.33,1,0.96,1.65,1.88,1.96c0.92,0.31,1.95,0.27,3.1-0.11l2.67-0.89c1.17-0.39,2.02-0.99,2.57-1.79s0.65-1.71,0.32-2.71
			c-0.34-1.01-0.97-1.67-1.89-2c-0.92-0.32-1.97-0.28-3.13,0.11L360.2,477.3z"/>
		<path class="st1" d="M362.83,461.1l0.73,4.97l3.46,0.54l0.47,3.21l-16.11-2.91l-0.46-3.15l14.58-7.42l0.47,3.22L362.83,461.1z
			 M361.04,465.67l-0.51-3.47l-5.16,2.49l0.01,0.06L361.04,465.67z"/>
		<path class="st1" d="M352.62,443.31l-0.08,4.43l13.11,0.22l-0.05,3.11l-13.11-0.22l-0.08,4.37l-2.4-0.04l0.2-11.91L352.62,443.31z
			"/>
		<path class="st1" d="M363.45,432.66c-0.59-0.11-1.1,0.01-1.52,0.36c-0.43,0.34-0.89,1-1.39,1.97c-0.85,1.67-1.71,2.89-2.6,3.67
			c-0.88,0.78-1.95,1.06-3.19,0.84c-1.25-0.23-2.18-0.92-2.79-2.09c-0.61-1.17-0.77-2.55-0.48-4.15c0.3-1.69,0.97-2.98,2.01-3.86
			c1.04-0.88,2.25-1.18,3.62-0.89l0.06,0.03l-0.53,2.97c-0.76-0.14-1.39-0.01-1.88,0.38c-0.49,0.39-0.81,1-0.96,1.83
			c-0.14,0.75-0.06,1.37,0.23,1.85c0.29,0.48,0.72,0.77,1.28,0.87c0.52,0.09,0.98-0.06,1.39-0.44c0.41-0.39,0.9-1.1,1.47-2.13
			c0.78-1.59,1.62-2.76,2.55-3.5c0.92-0.74,2.01-1,3.26-0.78c1.31,0.24,2.25,0.93,2.82,2.09s0.71,2.57,0.41,4.25
			c-0.29,1.64-0.96,2.98-1.99,4.01c-1.03,1.03-2.35,1.38-3.97,1.06l-0.06-0.03l0.53-2.97c0.9,0.16,1.61,0.02,2.14-0.44
			s0.86-1.14,1.03-2.05c0.15-0.82,0.09-1.47-0.18-1.96C364.44,433.06,364.02,432.76,363.45,432.66z"/>
		<path class="st1" d="M363.84,416.52c-0.77,0.17-1.45,0.25-2.03,0.24c-0.58-0.01-1.11-0.12-1.61-0.35
			c-1.18-0.53-1.94-1.28-2.27-2.25c-0.34-0.97-0.24-2.06,0.3-3.26c0.46-1.03,1.15-1.73,2.08-2.09c0.93-0.36,1.84-0.34,2.75,0.07
			c0.67,0.3,1.2,0.7,1.57,1.2c0.37,0.5,0.65,1.11,0.83,1.83l0.26,1.3l4.24-1.26c-0.28-0.4-0.62-0.77-1.01-1.1
			c-0.4-0.33-0.85-0.61-1.35-0.84l1.01-2.27c0.92,0.41,1.71,0.9,2.38,1.47c0.66,0.57,1.18,1.23,1.55,1.98l3.16-0.93l0.04,0.04
			l-1.41,3.15l-1.2,0.36c0.11,0.71,0.13,1.4,0.04,2.06c-0.08,0.66-0.27,1.33-0.57,2c-0.63,1.41-1.5,2.37-2.62,2.88
			c-1.12,0.5-2.27,0.49-3.46-0.04c-0.79-0.35-1.36-0.86-1.74-1.51C364.4,418.54,364.09,417.65,363.84,416.52z M361.31,413.86
			c0.27,0.12,0.58,0.18,0.92,0.18s0.74-0.06,1.2-0.18l-0.15-0.95c-0.07-0.47-0.2-0.82-0.39-1.06c-0.19-0.24-0.43-0.42-0.72-0.55
			c-0.33-0.15-0.67-0.17-1.01-0.07c-0.35,0.1-0.6,0.34-0.77,0.72c-0.17,0.39-0.17,0.76,0.02,1.1
			C360.59,413.41,360.89,413.67,361.31,413.86z M370.48,416.76c0.15-0.34,0.26-0.71,0.33-1.09c0.07-0.38,0.08-0.77,0.05-1.17
			l-4.61,1.39l0.03,0.12c0.14,0.52,0.33,0.92,0.56,1.2c0.24,0.28,0.5,0.48,0.79,0.61c0.58,0.26,1.13,0.29,1.66,0.1
			S370.22,417.34,370.48,416.76z"/>
		<path class="st1" d="M383.47,390.72l0.06,0.02c1.32,1,2.02,2.2,2.12,3.6c0.09,1.4-0.42,2.81-1.55,4.24
			c-1.15,1.46-2.55,2.27-4.2,2.42c-1.65,0.16-3.22-0.35-4.71-1.53l-2.42-1.91c-1.48-1.17-2.35-2.57-2.61-4.19
			c-0.25-1.62,0.18-3.14,1.3-4.57c1.17-1.48,2.45-2.36,3.83-2.62c1.38-0.26,2.73,0.13,4.02,1.19l0.04,0.06l-1.87,2.38
			c-0.78-0.62-1.51-0.89-2.19-0.81c-0.68,0.08-1.33,0.51-1.95,1.29c-0.58,0.73-0.73,1.53-0.47,2.41c0.26,0.87,0.86,1.68,1.79,2.41
			l2.43,1.92c0.94,0.74,1.87,1.13,2.8,1.16c0.93,0.04,1.7-0.33,2.31-1.1c0.58-0.73,0.82-1.43,0.72-2.09
			c-0.1-0.66-0.54-1.3-1.33-1.93L383.47,390.72z"/>
		<path class="st1" d="M394.5,378.87c1.27,1.43,1.87,3,1.79,4.73c-0.07,1.72-0.83,3.23-2.27,4.5c-1.43,1.27-3.01,1.84-4.73,1.71
			c-1.72-0.14-3.21-0.92-4.47-2.34l-1.85-2.09c-1.26-1.42-1.86-2.99-1.8-4.71c0.06-1.72,0.81-3.22,2.24-4.49
			c1.44-1.28,3.02-1.85,4.75-1.72c1.73,0.13,3.22,0.9,4.48,2.32L394.5,378.87z M390.31,378.83c-0.8-0.9-1.68-1.44-2.65-1.62
			c-0.96-0.18-1.85,0.09-2.64,0.79c-0.79,0.7-1.14,1.53-1.06,2.5c0.07,0.97,0.51,1.9,1.32,2.81l1.87,2.1
			c0.82,0.92,1.7,1.47,2.66,1.66s1.83-0.07,2.62-0.77c0.8-0.71,1.16-1.55,1.09-2.52s-0.51-1.92-1.33-2.84L390.31,378.83z"/>
	</g>
	<path class="st1" d="M460.3,369.88L460.3,369.88c34.68,9.09,60.35,42.93,60.35,80.43c0,37.49-25.67,69.11-60.35,78.2v4.43
		c37.09-9.18,64.65-42.75,64.65-82.63C524.95,410.43,497.39,379.07,460.3,369.88z"/>
	<path class="st1" d="M480.32,496.87c-1.44,13.36-12.09,23.96-25.48,25.32c2.83-0.56,1.93-0.43,3.52-0.79
		c1.26-0.28,1.34-0.38,2.57-0.73c3.02-0.88,4.26-1.72,4.89-2.2C475.09,511.43,479.3,505.55,480.32,496.87z"/>
</g>
<g>
	<g>
		<g>
			<path class="st1" d="M195.35,755.14c-0.15-1.71-0.25-3.45-0.58-5.11c-0.08-0.39-0.31-2.37-0.66-2.5c-1.39-0.53-2.7,2.4-3.18,3.33
				c-2.27,4.38-2.69,9.32-1.54,13.66c0.24,0.89-2.08,1.97-2.27,1.15c-0.95-4.1-0.78-8.41,0.92-12.66c0.99-2.48,3.13-6.99,5.99-7.64
				c4.43-1,3.98,13.92,4.28,17.32c0.34,3.78,0.67,7.61,1,11.44c5.87-4.09,11.84-7.98,17.98-11.5c-0.82-8.06-1.49-16.15-1.99-24.28
				c-0.05-0.83,2.24-1.82,2.3-0.79c0.48,7.96,1.08,15.93,1.83,23.87c3.68-2.05,7.43-3.96,11.24-5.7c1.24-0.57,1.6,0.43,0.37,1.07
				c-3.89,2.01-7.7,4.09-11.46,6.24c1.05,10.84,2.37,21.61,4.06,32.22c0.14,0.9-2.06,1.86-2.17,1.1
				c-1.54-10.63-2.9-21.33-4.01-32.08c-6.12,3.57-12.1,7.35-18.01,11.4c0.7,8.04,1.4,16.11,2.1,23.93c0.08,0.89-2.06,1.81-2.13,1.07
				c-0.7-7.83-1.44-15.66-2.14-23.49c-2.35,1.64-4.69,3.31-7.03,5.04c-1.02,0.75-2.4,0.19-1-0.84c2.62-1.93,5.25-3.84,7.89-5.71
				c-0.06-0.62-0.11-1.24-0.17-1.86C196.43,767.57,195.89,761.35,195.35,755.14z"/>
			<path class="st1" d="M199.81,801.31c-0.14,0-0.28-0.02-0.39-0.08c-0.22-0.1-0.36-0.3-0.38-0.54c-0.35-3.94-0.71-7.88-1.08-11.82
				c-0.34-3.67-0.67-7.33-1-11c-2.45,1.71-4.51,3.2-6.47,4.65c-0.55,0.41-1.25,0.54-1.73,0.33c-0.27-0.12-0.45-0.34-0.48-0.61
				c-0.04-0.39,0.21-0.79,0.75-1.18c2.75-2.03,5.28-3.86,7.72-5.58l-0.15-1.63c-0.55-6.22-1.09-12.44-1.62-18.66l0,0
				c-0.03-0.29-0.05-0.58-0.07-0.88c-0.11-1.39-0.23-2.83-0.5-4.19c-0.02-0.08-0.04-0.21-0.06-0.37c-0.16-1.04-0.3-1.66-0.42-1.86
				c-0.93-0.24-2.05,2.01-2.48,2.86c-0.06,0.11-0.11,0.21-0.15,0.3c-2.13,4.1-2.68,8.98-1.51,13.39c0.1,0.37-0.05,0.78-0.42,1.14
				c-0.51,0.5-1.47,0.92-2.07,0.75c-0.28-0.08-0.47-0.28-0.53-0.55c-1.03-4.43-0.71-8.77,0.94-12.9c1.3-3.24,3.44-7.24,6.26-7.87
				c0.65-0.15,1.24-0.02,1.77,0.39c2.46,1.9,2.72,9.89,2.87,14.66c0.04,1.1,0.07,2.04,0.12,2.62c0.32,3.56,0.63,7.16,0.95,10.77
				c6.2-4.3,11.85-7.91,17.23-11.01c-0.85-8.46-1.5-16.33-1.96-24.05c-0.03-0.41,0.25-0.83,0.78-1.18c0.55-0.36,1.34-0.61,1.85-0.36
				c0.27,0.13,0.43,0.38,0.44,0.7c0.47,7.87,1.06,15.69,1.77,23.26c3.66-2.02,7.27-3.84,10.75-5.42c0.91-0.41,1.43-0.13,1.61,0.23
				c0.2,0.41,0,1.07-0.9,1.53c-3.68,1.9-7.46,3.95-11.23,6.1c1.11,11.45,2.43,21.9,4.03,31.94c0.07,0.41-0.15,0.84-0.61,1.22
				c-0.52,0.42-1.37,0.76-1.9,0.55c-0.24-0.09-0.4-0.29-0.44-0.55c-1.6-11.04-2.89-21.35-3.95-31.5
				c-5.89,3.45-11.7,7.13-17.28,10.95l0.36,4.18c0.57,6.57,1.14,13.13,1.71,19.52c0.04,0.44-0.23,0.89-0.76,1.27
				C200.78,801.08,200.25,801.31,199.81,801.31z M199.8,800.53C199.8,800.53,199.8,800.53,199.8,800.53c0.19,0,0.62-0.13,0.99-0.41
				c0.24-0.18,0.38-0.38,0.37-0.51c-0.57-6.39-1.14-12.95-1.71-19.52l-0.4-4.63l0.19-0.13c5.82-3.98,11.88-7.82,18.04-11.41
				l0.52-0.3l0.06,0.6c1.07,10.31,2.38,20.78,4,32.01c0.18,0.02,0.66-0.12,1.06-0.42c0.27-0.21,0.37-0.4,0.36-0.5
				c-1.62-10.13-2.94-20.68-4.06-32.24l-0.02-0.25l0.22-0.12c3.85-2.2,7.71-4.31,11.47-6.24c0.38-0.2,0.52-0.4,0.55-0.49
				c-0.07-0.02-0.26-0.02-0.58,0.12c-3.62,1.65-7.4,3.56-11.22,5.68l-0.52,0.29l-0.06-0.59c-0.73-7.77-1.34-15.8-1.83-23.88
				c0-0.04-0.01-0.05-0.01-0.05c-0.05-0.04-0.37-0.06-0.83,0.17c-0.45,0.22-0.69,0.51-0.68,0.63c0.47,7.78,1.12,15.72,1.98,24.27
				l0.03,0.25l-0.22,0.13c-5.59,3.21-11.46,6.96-17.95,11.48l-0.55,0.38l-0.06-0.67c-0.33-3.83-0.67-7.65-1-11.44
				c-0.05-0.6-0.08-1.51-0.12-2.66c-0.14-4.33-0.4-12.39-2.57-14.07c-0.33-0.26-0.7-0.34-1.12-0.25c-2.63,0.59-4.71,4.89-5.71,7.4
				c-1.59,3.98-1.9,8.16-0.91,12.43c0.09,0.03,0.65-0.06,1.15-0.45c0.28-0.22,0.39-0.42,0.36-0.51c-1.22-4.59-0.64-9.67,1.57-13.94
				c0.04-0.08,0.09-0.18,0.14-0.29c0.62-1.24,1.92-3.83,3.52-3.22c0.38,0.15,0.57,0.7,0.85,2.45c0.02,0.15,0.04,0.27,0.06,0.34
				c0.28,1.4,0.4,2.86,0.52,4.28c0.02,0.29,0.05,0.58,0.07,0.87l0,0c0.54,6.22,1.08,12.44,1.62,18.66l0.19,2.08l-0.18,0.13
				c-2.49,1.76-5.07,3.63-7.89,5.71c-0.32,0.24-0.41,0.39-0.43,0.45c0.12,0.06,0.55,0.07,0.97-0.24c2.11-1.56,4.34-3.16,7.04-5.04
				l0.55-0.38l0.06,0.67c0.35,3.89,0.71,7.78,1.06,11.67C199.09,792.71,199.45,796.62,199.8,800.53z"/>
		</g>
		<g>
			<path class="st1" d="M232.49,772.87c-6.29,2.1-8.06-8.88-6.23-13.6c1.57-4.04,7.55-5.55,8.07-0.61c0.37,3.52-2.83,7.52-6.05,7.72
				c0.75,3.29,2.71,5.9,6.82,3.38c4.75-2.92,7.73-9.57,10.8-14.1c0.35-0.52,2.47-1.17,1.92-0.17
				C244.53,761.45,239.1,770.67,232.49,772.87z M227.89,762.46c-0.01,0.67,0.02,1.38,0.09,2.11c0.1,0,0.18,0.02,0.26,0.05
				c3.18,1.65,5.96-7.6,2.06-7.44C228.54,757.25,227.91,761.32,227.89,762.46z"/>
			<path class="st1" d="M230.97,773.52c-1.19,0-2.26-0.48-3.16-1.42c-2.74-2.88-3.29-9.45-1.92-12.97c0.96-2.48,3.6-4.24,5.9-3.94
				c1.65,0.22,2.71,1.47,2.92,3.43c0.2,1.84-0.53,3.95-1.95,5.62c-1.15,1.36-2.59,2.25-4.01,2.48c0.36,1.36,1.06,2.92,2.35,3.46
				c1.01,0.42,2.28,0.17,3.78-0.75c3.47-2.13,6.06-6.44,8.34-10.24c0.8-1.34,1.56-2.6,2.34-3.75c0.35-0.51,1.84-1.12,2.44-0.75
				c0.09,0.05,0.5,0.35,0.15,0.98c-3.89,7.06-9.18,15.45-15.54,17.57C232.05,773.43,231.5,773.52,230.97,773.52z M231.3,755.94
				c-1.68,0-3.84,1.3-4.68,3.47c-1.28,3.29-0.72,9.55,1.76,12.15c1.09,1.14,2.43,1.46,3.98,0.94l0,0
				c6.1-2.03,11.26-10.22,15.08-17.15c-0.38,0.03-1.09,0.32-1.23,0.53c-0.77,1.13-1.52,2.39-2.32,3.72
				c-2.33,3.87-4.97,8.27-8.6,10.5c-1.72,1.06-3.23,1.33-4.49,0.81c-1.37-0.58-2.38-2.11-2.91-4.43l-0.1-0.45l0.46-0.03
				c1.35-0.08,2.78-0.9,3.92-2.26c1.28-1.52,1.95-3.4,1.77-5.04c-0.17-1.59-0.97-2.57-2.25-2.74
				C231.57,755.95,231.44,755.94,231.3,755.94z M229.01,765.21c-0.32,0-0.64-0.08-0.95-0.24c0,0,0,0,0,0c0,0-0.02-0.01-0.08-0.01
				l-0.34-0.01l-0.04-0.34c-0.07-0.71-0.1-1.44-0.09-2.15v0c0.02-0.91,0.57-5.57,2.78-5.66c0.96-0.04,1.69,0.42,2.06,1.3
				c0.72,1.74-0.14,4.97-1.7,6.4C230.12,764.97,229.56,765.21,229.01,765.21z M228.34,764.24c0.03,0.01,0.05,0.02,0.07,0.03
				c0.55,0.29,1.12,0.17,1.69-0.35c1.31-1.2,2.1-4.1,1.51-5.53c-0.24-0.58-0.67-0.85-1.3-0.82c-1.28,0.05-2,3.46-2.03,4.9
				C228.27,763.05,228.29,763.65,228.34,764.24z"/>
		</g>
		<g>
			<path class="st1" d="M268.19,750.24c-0.52,4.75-1.53,11-5.66,14.03c-3.89,2.85-6.63,0.01-8.39-3.54
				c-0.5,2.92-1.63,5.71-4.08,6.63c-4.7,1.77-4.93-5.25-4.87-8.21c0.05-2.71,0.43-7.85,4.28-7.83c1.75,0.01,2.99,1.28,3.71,2.9
				c0.55-0.26,1.13-0.33,1.24,0.08c0.69,2.71,1.74,5.99,3.66,8.12c1.25,1.39,1.44,1.65,3.15,0.77c1.45-0.74,1.95-1.86,2.58-3.31
				c1.26-2.91,1.61-6.05,2.37-9.1C266.32,750.2,268.28,749.41,268.19,750.24z M251.88,760.46c-0.18-0.06-0.28-0.21-0.21-0.49
				c0.37-1.41-0.23-5.71-2.12-6.56c-2.43-1.08-2.12,5.06-2.06,6.38c0.05,0.94,0.28,4.86,0.97,5.29c1.53,0.94,2.45-0.93,2.77-1.95
				C251.52,762.24,251.73,761.35,251.88,760.46z"/>
			<path class="st1" d="M248.67,768.03c-0.61,0-1.16-0.17-1.64-0.51c-1.57-1.11-2.32-3.93-2.23-8.38c0.11-5.45,1.67-8.21,4.66-8.21
				c0.01,0,0.01,0,0.02,0c1.62,0.01,3,0.99,3.9,2.79c0.31-0.1,0.7-0.17,1.01-0.02c0.21,0.1,0.35,0.27,0.41,0.5
				c0.61,2.38,1.63,5.8,3.57,7.95l0.07,0.07c1.16,1.29,1.21,1.34,2.62,0.62c1.34-0.69,1.81-1.76,2.4-3.12
				c0.86-1.98,1.3-4.13,1.73-6.2c0.19-0.93,0.39-1.89,0.62-2.84c0.16-0.66,1.51-1.3,2.19-1.17c0.4,0.07,0.63,0.38,0.58,0.77v0
				c-0.59,5.39-1.74,11.31-5.82,14.3c-1.47,1.08-2.9,1.46-4.25,1.13c-1.55-0.38-2.96-1.67-4.2-3.84c-0.72,3.12-2.1,5.09-4.11,5.85
				C249.65,767.92,249.14,768.03,248.67,768.03z M249.46,751.7c-2.51,0-3.78,2.44-3.88,7.45c-0.08,4.06,0.6,6.81,1.9,7.73
				c0.64,0.45,1.44,0.49,2.44,0.11c1.95-0.74,3.24-2.87,3.83-6.33l0.2-1.18l0.53,1.07c1.26,2.55,2.68,4.03,4.2,4.4
				c1.12,0.27,2.33-0.06,3.61-1c3.82-2.8,4.92-8.48,5.5-13.69c-0.32-0.02-1.15,0.37-1.24,0.61c-0.23,0.92-0.42,1.88-0.61,2.8
				c-0.43,2.11-0.88,4.3-1.78,6.35c-0.63,1.44-1.17,2.69-2.76,3.5c-1.87,0.96-2.28,0.63-3.55-0.79l-0.07-0.07
				c-2.05-2.28-3.12-5.82-3.75-8.28c-0.03-0.01-0.28-0.02-0.69,0.18l-0.36,0.17l-0.16-0.36c-0.44-0.99-1.47-2.66-3.36-2.67
				C249.47,751.7,249.46,751.7,249.46,751.7z M249.27,765.72c-0.33,0-0.67-0.11-1.01-0.32c-0.6-0.37-0.99-2.26-1.16-5.6
				c-0.19-3.82,0.19-6.01,1.19-6.69c0.28-0.19,0.75-0.36,1.42-0.06c2.13,0.95,2.75,5.47,2.34,7.02c0,0.01-0.01,0.02-0.01,0.03
				l0.27,0.09l-0.05,0.33c-0.16,0.97-0.38,1.86-0.65,2.72c-0.19,0.59-0.74,1.99-1.79,2.38
				C249.64,765.69,249.46,765.72,249.27,765.72z M249.01,753.67c-0.13,0-0.22,0.04-0.28,0.09c-0.34,0.23-1.09,1.28-0.85,6.01
				c0.15,2.94,0.52,4.76,0.79,4.98c0.32,0.2,0.61,0.25,0.88,0.15c0.59-0.22,1.07-1.12,1.31-1.89c0.24-0.76,0.43-1.53,0.59-2.37
				c-0.16-0.16-0.25-0.42-0.16-0.77c0.35-1.32-0.25-5.37-1.91-6.11C249.23,753.69,249.11,753.67,249.01,753.67z"/>
		</g>
		<g>
			<path class="st1" d="M288.78,744.94c-1.53,6.44-7.55,31.01-17.55,24.99c-4.22-2.54-4.02-11.74-4.57-16.4
				c-0.97-8.17-1.66-16.44-2.17-24.72c-0.04-0.63,1.81-1.43,1.88-0.8c0.67,6.6,1.18,13.24,1.9,19.83
				c0.63,5.83,1.06,12.05,2.76,17.53c0.67,2.14,2.26,4.32,4.82,3.59c2.79-0.8,4.57-5.23,5.67-7.77c2.23-5.15,3.29-10.6,5.43-15.76
				C287.15,744.92,288.97,744.13,288.78,744.94z"/>
			<path class="st1" d="M274.32,771.26c-1.09,0-2.19-0.33-3.29-1c-3.62-2.18-4.13-8.88-4.5-13.77c-0.08-1.07-0.16-2.08-0.26-2.92
				c-0.91-7.68-1.62-15.77-2.17-24.74c-0.05-0.75,1.15-1.39,1.81-1.44c0.57-0.05,0.81,0.28,0.84,0.58c0.29,2.83,0.55,5.71,0.8,8.49
				c0.34,3.72,0.69,7.57,1.1,11.33c0.1,0.91,0.19,1.82,0.29,2.75c0.51,4.98,1.03,10.12,2.46,14.71c0.31,0.99,1.52,4.14,4.34,3.33
				c2.47-0.71,4.21-4.74,5.25-7.15l0.17-0.4c1.15-2.65,2-5.44,2.83-8.14c0.77-2.52,1.57-5.12,2.6-7.61
				c0.24-0.59,1.59-1.23,2.18-1.03c0.25,0.08,0.51,0.34,0.4,0.79l0,0c-3.59,15.08-7.85,23.76-12.67,25.78
				C275.77,771.11,275.05,771.26,274.32,771.26z M265.99,728.16c-0.14,0.01-0.42,0.08-0.71,0.26c-0.28,0.17-0.39,0.32-0.4,0.37
				c0.55,8.95,1.26,17.02,2.17,24.69c0.1,0.86,0.18,1.88,0.26,2.96c0.36,4.72,0.85,11.19,4.12,13.16c1.64,0.99,3.2,1.15,4.76,0.5
				c3.14-1.32,7.79-6.74,12.18-25.1c-0.34,0.07-0.97,0.39-1.07,0.59c-1.02,2.46-1.81,5.04-2.58,7.54c-0.83,2.72-1.69,5.53-2.86,8.22
				l-0.17,0.4c-1.16,2.7-2.92,6.78-5.75,7.59c-2.78,0.8-4.56-1.46-5.3-3.85c-1.45-4.66-1.98-9.84-2.49-14.86
				c-0.09-0.92-0.19-1.84-0.29-2.74c-0.41-3.77-0.76-7.62-1.1-11.35C266.53,733.79,266.27,730.95,265.99,728.16z"/>
		</g>
		<g>
			<path class="st1" d="M321.81,721.25c-11.51,2.89-23.31,6.34-34.82,10.7c1.71,14.7,3.51,29.38,4.92,44.15
				c0.09,0.93-2.15,1.95-2.26,1.14c-1.9-14.73-3.41-29.58-5.01-44.39c-5.29,2.07-10.5,4.34-15.59,6.84
				c1.08-0.14,0.12,1.19-0.58,1.39c-1.62,0.47-3.25,0.88-4.88,1.29c-1.28,0.33-0.48-1.01,0.18-1.36c6.72-3.59,13.67-6.68,20.74-9.42
				c-0.3-2.78-0.6-5.56-0.91-8.33c-0.11-0.95,2.18-1.94,2.27-1.15c0.32,2.87,0.65,5.73,0.98,8.59c11.8-4.43,23.89-7.9,35.73-11.01
				C324.07,719.3,322.68,721.03,321.81,721.25z"/>
			<path class="st1" d="M290.07,777.92c-0.53,0-0.77-0.33-0.81-0.63c-1.56-12.06-2.87-24.4-4.15-36.33
				c-0.27-2.52-0.54-5.04-0.81-7.56c-5.01,1.97-9.85,4.09-14.41,6.31c0.01,0.03,0.02,0.06,0.02,0.08c0.13,0.64-0.74,1.49-1.34,1.67
				c-1.49,0.43-3.01,0.82-4.48,1.19l-0.41,0.1c-0.78,0.2-1.04-0.13-1.12-0.35c-0.24-0.61,0.52-1.47,1.02-1.73
				c6.29-3.36,13-6.41,20.5-9.33c-0.29-2.68-0.58-5.36-0.88-8.04c-0.11-1,1.27-1.77,2.07-1.86c0.66-0.07,0.94,0.29,0.98,0.62
				c0.3,2.7,0.61,5.4,0.93,8.1c12.67-4.72,25.5-8.28,35.3-10.85c0.3-0.08,0.72-0.15,0.99,0.12c0.09,0.09,0.23,0.29,0.13,0.63
				c-0.17,0.6-1.03,1.4-1.68,1.56l0,0c-13.02,3.27-24.31,6.73-34.5,10.58c0.29,2.51,0.59,5.01,0.88,7.52
				c1.4,11.89,2.84,24.19,4,36.34c0.09,0.91-1.19,1.75-2.06,1.85C290.18,777.92,290.12,777.92,290.07,777.92z M290.03,777.14
				c0.16,0.02,0.61-0.1,1.03-0.4c0.34-0.24,0.47-0.48,0.46-0.61c-1.16-12.14-2.6-24.43-4-36.32c-0.31-2.61-0.61-5.21-0.92-7.82
				l-0.04-0.3l0.28-0.11c10.29-3.9,21.7-7.4,34.87-10.71c0.35-0.09,0.81-0.53,1.02-0.82c-0.02,0-0.04,0.01-0.07,0.02
				c-9.9,2.6-22.9,6.2-35.69,11l-0.47,0.17l-0.06-0.49c-0.33-2.84-0.66-5.69-0.98-8.54c-0.17-0.02-0.65,0.1-1.07,0.41
				c-0.28,0.21-0.45,0.44-0.43,0.59c0.31,2.78,0.61,5.56,0.91,8.34l0.03,0.3l-0.28,0.11c-7.59,2.94-14.36,6.01-20.69,9.4
				c-0.27,0.14-0.52,0.47-0.61,0.67c0.04-0.01,0.09-0.02,0.16-0.03l0.41-0.1c1.46-0.37,2.98-0.76,4.46-1.19
				c0.27-0.08,0.59-0.41,0.72-0.63l-2.32,0.3l2.11-1.04c4.92-2.42,10.18-4.73,15.62-6.85l0.47-0.19l0.05,0.51
				c0.29,2.69,0.58,5.38,0.86,8.06C287.16,752.78,288.48,765.1,290.03,777.14z"/>
		</g>
		<g>
			<path class="st1" d="M324.06,735.99c-1.04,4.7-5.89,12.39-9.95,15.04c-1.88,1.22-3.72,1.5-4.99-0.21c-1.53-2.07-1.5-5.5-1.89-8.1
				c-0.18-1.21-0.21-3.62-1.04-4.5c-3.13-3.33-5.83,2.97-6.5,5.31c0.73,6.63,1.46,13.27,2.17,19.9c0.1,0.95-2.19,1.94-2.28,1.15
				c-1.57-14.68-3.07-29.38-4.65-44.06c-0.1-0.89,2.05-1.82,2.13-1.08c0.74,6.92,1.5,13.84,2.26,20.76c1.28-2.14,3.11-3.97,5.33-4.6
				c4.82-1.38,4.61,6.1,5.14,9.3c0.37,2.23,0.92,6.93,4.05,4.76c1.73-1.2,3.24-3.94,4.32-5.7c1.44-2.34,3-4.92,3.98-7.48
				C322.35,735.95,324.24,735.15,324.06,735.99z"/>
			<path class="st1" d="M300.01,765.26c-0.15,0-0.28-0.02-0.4-0.08c-0.23-0.1-0.38-0.31-0.41-0.56c-0.76-7.06-1.5-14.13-2.24-21.2
				c-0.78-7.49-1.6-15.24-2.41-22.86c-0.05-0.43,0.21-0.88,0.72-1.25c0.53-0.39,1.31-0.67,1.79-0.45c0.23,0.1,0.37,0.3,0.4,0.54
				c0.71,6.65,1.44,13.26,2.14,19.68c1.4-1.98,3.13-3.33,4.95-3.85c1.12-0.32,2.09-0.22,2.87,0.31c1.9,1.28,2.25,4.7,2.54,7.45
				c0.07,0.69,0.14,1.34,0.22,1.86l0.06,0.38c0.24,1.52,0.65,4.06,1.76,4.54c0.42,0.18,0.96,0.04,1.61-0.41
				c1.45-1.01,2.8-3.25,3.79-4.89c0.15-0.24,0.29-0.48,0.42-0.7c1.32-2.14,2.95-4.81,3.95-7.41c0.24-0.62,1.59-1.28,2.23-1.08
				c0.35,0.1,0.52,0.42,0.43,0.8v0c-1.02,4.6-5.76,12.44-10.12,15.28c-2.3,1.5-4.26,1.4-5.52-0.3c-1.25-1.68-1.51-4.19-1.74-6.41
				c-0.07-0.66-0.13-1.28-0.22-1.87c-0.04-0.27-0.07-0.6-0.11-0.96c-0.12-1.16-0.28-2.74-0.83-3.34c-0.64-0.68-1.26-0.94-1.9-0.78
				c-1.75,0.43-3.32,3.79-3.92,5.86l0,0.01c0.73,6.61,1.45,13.21,2.16,19.82c0.05,0.45-0.22,0.92-0.76,1.31
				C301.06,765.02,300.48,765.26,300.01,765.26z M299.97,764.48c0.18,0.02,0.65-0.11,1.07-0.42c0.28-0.21,0.45-0.44,0.44-0.59
				c-0.71-6.61-1.44-13.21-2.16-19.82l-0.02-0.16l0.02-0.07c0.02-0.06,1.67-5.79,4.5-6.48c0.92-0.22,1.81,0.12,2.65,1.01
				c0.74,0.78,0.9,2.45,1.04,3.79c0.03,0.34,0.07,0.66,0.1,0.92c0.09,0.6,0.16,1.23,0.22,1.9c0.22,2.11,0.47,4.51,1.59,6.02
				c1,1.35,2.5,1.39,4.46,0.11c4.06-2.65,8.72-10.24,9.76-14.69c-0.35,0.05-1.05,0.41-1.15,0.62c-1.02,2.67-2.68,5.37-4.01,7.54
				c-0.13,0.22-0.27,0.45-0.42,0.69c-1.08,1.79-2.43,4.03-4.01,5.13c-0.88,0.62-1.68,0.78-2.36,0.49c-1.51-0.64-1.94-3.34-2.23-5.13
				l-0.06-0.37c-0.09-0.54-0.16-1.2-0.23-1.9c-0.26-2.45-0.61-5.81-2.2-6.88c-0.59-0.4-1.32-0.47-2.22-0.21
				c-1.9,0.54-3.71,2.12-5.1,4.43l-0.6,0.99l-0.13-1.15c-0.74-6.73-1.5-13.69-2.25-20.69c-0.16-0.01-0.62,0.12-1,0.41
				c-0.29,0.22-0.37,0.41-0.36,0.51c0.82,7.62,1.63,15.37,2.41,22.86C298.48,750.39,299.21,757.44,299.97,764.48z"/>
		</g>
		<g>
			<path class="st1" d="M352.75,728.87c-1.49,3.5-3.69,6.78-6.14,9.69c-1.81,2.16-4.39,5.56-7,6.51c-2.09,0.76-3.38-0.49-3.95-2.39
				c-1.12-3.74-1.29-8.1-1.53-12.1c-0.04-0.71,1.9-1.55,1.97-0.68c0.23,3.08,0.61,6.09,1.16,9.07c0.44,2.34,1.17,6.1,4.22,3.1
				c3.9-3.83,6.7-8.1,9.39-12.86C351.2,728.63,353.18,727.84,352.75,728.87z M333.74,727.25c0.19-1.07,0.46-2.26,1.23-3.07
				c0.26-0.28,1.71-0.98,1.74-0.17c0.02,0.41-0.23,0.84-0.36,1.22c-0.13,0.4-0.24,0.81-0.31,1.22c-0.1,0.56-0.65,0.93-1.16,1.1
				C334.63,727.65,333.65,727.81,333.74,727.25z"/>
			<path class="st1" d="M338.44,745.69c-0.45,0-0.87-0.1-1.26-0.29c-0.86-0.43-1.52-1.33-1.9-2.6c-1.04-3.49-1.27-7.43-1.49-11.25
				l-0.05-0.95c-0.05-0.76,1.05-1.41,1.79-1.46c0.55-0.04,0.92,0.25,0.95,0.73c0.23,3.14,0.61,6.09,1.16,9.03
				c0.25,1.33,0.66,3.55,1.63,3.86c0.59,0.19,1.38-0.42,1.93-0.96c4.19-4.12,7.06-8.77,9.32-12.78c0.31-0.54,1.7-1.27,2.33-0.96
				c0.09,0.04,0.53,0.3,0.25,0.96l0,0c-1.38,3.25-3.46,6.54-6.2,9.79c-0.21,0.25-0.42,0.51-0.65,0.78c-1.83,2.21-4.1,4.97-6.51,5.84
				C339.29,745.61,338.85,745.69,338.44,745.69z M335.63,729.92c-0.13,0-0.39,0.06-0.67,0.22c-0.32,0.19-0.43,0.38-0.43,0.42
				l0.06,0.95c0.22,3.77,0.44,7.67,1.46,11.07c0.22,0.74,0.66,1.71,1.5,2.13c0.55,0.28,1.2,0.28,1.95,0.01
				c2.21-0.8,4.5-3.58,6.18-5.6c0.23-0.28,0.45-0.54,0.65-0.79c2.67-3.17,4.7-6.39,6.05-9.55c-0.35,0.06-1.02,0.39-1.16,0.63
				c-2.28,4.06-5.19,8.77-9.45,12.95c-1.04,1.02-1.93,1.4-2.71,1.15c-1.41-0.45-1.85-2.77-2.16-4.46c-0.55-2.96-0.94-5.94-1.17-9.11
				C335.69,729.92,335.67,729.92,335.63,729.92z M334.29,728.04c-0.25,0-0.52-0.05-0.71-0.21c-0.18-0.16-0.26-0.39-0.22-0.64v0
				c0.21-1.19,0.51-2.41,1.33-3.27c0.23-0.25,1.28-0.85,1.93-0.61c0.29,0.11,0.47,0.36,0.48,0.7c0.02,0.38-0.13,0.74-0.26,1.05
				c-0.04,0.11-0.09,0.21-0.12,0.31c-0.14,0.41-0.23,0.79-0.3,1.17c-0.1,0.61-0.63,1.14-1.41,1.41
				C335.01,727.93,334.66,728.04,334.29,728.04z M334.14,727.25c0.15,0.03,0.46,0,0.62-0.06c0.39-0.13,0.83-0.41,0.9-0.8
				c0.07-0.42,0.18-0.84,0.33-1.28c0.04-0.12,0.09-0.24,0.14-0.36c0.1-0.25,0.21-0.51,0.2-0.72c0,0,0-0.01,0-0.01
				c-0.22-0.05-0.92,0.26-1.07,0.42C334.59,725.15,334.33,726.21,334.14,727.25z"/>
		</g>
		<g>
			<path class="st1" d="M367.88,724.96c-1.43,4.68-6.03,9.82-9.06,14.98c1.75,2.15,3.12,4.48,2.92,7.41
				c-0.22,3.2-3.66,9.65-7.03,6.33c-0.05-0.05-0.08-0.1-0.1-0.15c0,0,0,0,0,0c-2.12-4-0.67-8.75,1.7-12.69
				c-1.18-1.4-2.51-2.67-3.62-4.12c-2.27-2.99-3.48-6.41-1.82-10.3c0.02-0.05,0.05-0.1,0.09-0.15c0.01-0.02,0.02-0.04,0.03-0.06
				c0.82-1.33,2.67-2.04,4.02-1.71c1.81,0.44,3.08,2.21,3.45,4.05c0.16,0.82-1.85,1.83-2.08,1.06c-0.31-1.02-0.76-1.98-1.53-2.68
				c-0.41-0.37-0.86-0.63-1.37-0.83c-0.16-0.06-0.42-0.09-0.42-0.08c-0.01,0.01-0.01,0.02-0.02,0.03c-2.29,5.49,1.42,8.91,4.68,12.6
				c2.89-4.32,6.01-8.36,7.94-13.29C365.96,724.59,368.25,723.75,367.88,724.96z M357.5,742.44c-1.53,3.29-2.1,6.57-0.5,9.74
				c1.5,1.33,2.24-4.39,2.17-5.12c-0.11-1.32-0.46-2.4-1.04-3.54C357.94,743.15,357.73,742.79,357.5,742.44z"/>
			<path class="st1" d="M356.66,755c-0.66,0-1.43-0.25-2.23-1.03c-0.06-0.06-0.11-0.12-0.14-0.18l-0.01-0.01l-0.04-0.08
				c-2.32-4.37-0.46-9.33,1.58-12.81c-0.42-0.49-0.87-0.98-1.31-1.45c-0.73-0.79-1.48-1.6-2.14-2.47
				c-2.77-3.65-3.38-7.15-1.87-10.69c0.03-0.06,0.06-0.13,0.11-0.19c0.01-0.02,0.02-0.04,0.03-0.06c0.88-1.43,2.88-2.27,4.45-1.89
				c2.08,0.51,3.38,2.55,3.74,4.35c0.16,0.82-0.85,1.55-1.62,1.75c-0.73,0.18-1.11-0.14-1.22-0.5c-0.34-1.12-0.81-1.94-1.42-2.5
				c-0.34-0.32-0.74-0.55-1.25-0.75c-0.01-0.01-0.03-0.01-0.04-0.01c-1.81,4.68,0.98,7.78,3.93,11.05c0.15,0.17,0.3,0.34,0.45,0.51
				c0.47-0.69,0.94-1.38,1.41-2.07c2.4-3.49,4.67-6.79,6.21-10.73c0.3-0.75,1.78-1.46,2.52-1.2c0.33,0.12,0.62,0.45,0.44,1.06l0,0
				c-0.94,3.06-3.14,6.22-5.47,9.56c-1.2,1.73-2.44,3.51-3.49,5.27c1.55,1.94,3.05,4.34,2.84,7.47c-0.16,2.34-2.02,6.5-4.46,7.43
				C357.38,754.92,357.04,755,356.66,755z M354.96,753.39c0,0.01,0.01,0.01,0.02,0.02c0.78,0.77,1.57,0.99,2.41,0.67
				c2.08-0.79,3.81-4.58,3.96-6.75c0.2-2.97-1.32-5.28-2.83-7.14l-0.17-0.21l0.14-0.23c1.09-1.87,2.4-3.74,3.66-5.56
				c2.29-3.29,4.46-6.4,5.36-9.34c0.01-0.05,0.02-0.08,0.02-0.1c-0.09-0.02-0.29,0-0.6,0.11c-0.48,0.18-0.84,0.48-0.91,0.65
				c-1.57,4.02-3.97,7.51-6.29,10.89c-0.56,0.82-1.13,1.64-1.69,2.47l-0.28,0.42l-0.34-0.38c-0.26-0.29-0.52-0.59-0.78-0.88
				c-3.03-3.37-6.17-6.85-3.97-12.13l0.06-0.1c0.18-0.28,0.63-0.16,0.88-0.05c0.6,0.24,1.08,0.52,1.49,0.91
				c0.72,0.66,1.26,1.59,1.64,2.85c0.07,0.03,0.49-0.03,0.93-0.35c0.29-0.21,0.42-0.43,0.4-0.52c-0.31-1.56-1.41-3.32-3.16-3.74
				c-1.25-0.31-2.9,0.4-3.6,1.53l-0.05,0.09c-0.02,0.03-0.04,0.06-0.04,0.07c-1.39,3.26-0.81,6.51,1.77,9.91
				c0.64,0.84,1.38,1.64,2.09,2.42c0.5,0.55,1.02,1.11,1.51,1.69l0.18,0.21l-0.14,0.24c-1.98,3.3-3.89,8.09-1.72,12.25l0.03,0.03
				L354.96,753.39z M357.44,752.77c-0.2,0-0.44-0.07-0.7-0.3l-0.06-0.05l-0.03-0.07c-1.49-2.94-1.33-6.14,0.5-10.08l0.29-0.64
				l0.38,0.59c0.27,0.41,0.48,0.76,0.66,1.11c0.64,1.25,0.97,2.39,1.08,3.68c0.04,0.44-0.37,4.97-1.72,5.65
				C357.74,752.72,357.6,752.77,357.44,752.77z M357.31,751.93c0.11,0.08,0.15,0.06,0.18,0.04c0.77-0.39,1.35-4.21,1.3-4.89
				c-0.1-1.19-0.4-2.23-1-3.39c-0.07-0.14-0.15-0.28-0.23-0.42C356.14,746.64,356.06,749.41,357.31,751.93z"/>
		</g>
	</g>
	<g>
		<path class="st1" d="M211.21,834.91c-3.45,4.38-6.72,8.88-9.89,13.46c0.99,7.21,1.34,14.69,0.22,21.7
			c-0.72,4.54-4.66,11.4-9.76,10c-6.28-1.73-3.05-14.27-0.68-18.82c2.19-4.2,5.08-8.15,7.8-12.06c-0.34-3.04-0.78-6.06-1.34-9.04
			c-1.38,6.04-4.31,13.4-9.06,13.35c-4.95-0.05-2.79-12.27-4.25-15.51c-0.3-0.67,1.71-1.74,2.03-1.02c1.73,3.88,0.4,9.1,1.87,13.13
			c1.54,4.22,4.67-1.91,5.56-4.24c1.39-3.62,2.6-7.65,2.7-11.42c0.02-0.68,1.92-1.64,2.1-0.89c0.92,3.96,1.81,8.23,2.49,12.62
			c2.69-3.88,5.46-7.71,8.52-11.27C210,834.33,212.05,833.85,211.21,834.91z M199.15,851.54c-0.61,0.89-1.22,1.78-1.82,2.68
			c-4.26,6.35-8.21,13.31-6.46,20.68c0.16,0.67,0.32,1.48,0.7,2.04c0.85,1.22,2.95,1.63,4.48,0.82c1.1-0.58,2.11-2.9,2.56-4.07
			c1.39-3.6,1.2-7.78,1.14-11.4C199.69,858.68,199.49,855.09,199.15,851.54z"/>
		<path class="st1" d="M193.14,880.64c-0.49,0-0.97-0.07-1.46-0.2c-1.46-0.4-2.54-1.37-3.19-2.88c-2.01-4.62,0.53-13.16,2.27-16.5
			c1.88-3.61,4.29-7.05,6.62-10.38c0.37-0.53,0.75-1.07,1.12-1.6c-0.27-2.37-0.6-4.74-1-7.07c-1.24,4.58-4,11.87-8.95,11.87
			c-0.02,0-0.03,0-0.05,0c-3.62-0.04-3.81-5.46-3.98-10.24c-0.08-2.29-0.16-4.46-0.62-5.5c-0.07-0.16-0.15-0.48,0.14-0.88
			c0.39-0.55,1.31-0.99,1.91-0.93c0.32,0.03,0.57,0.2,0.68,0.46c0.93,2.09,1,4.56,1.07,6.95c0.06,2.13,0.12,4.33,0.81,6.2
			c0.2,0.54,0.53,1.19,0.99,1.19c0,0,0,0,0,0c1.14,0,2.96-3.15,3.83-5.43c1.72-4.48,2.59-8.17,2.67-11.29
			c0.02-0.74,1.18-1.46,1.93-1.53c0.58-0.06,0.86,0.25,0.93,0.57c1,4.3,1.77,8.14,2.35,11.69c2.42-3.46,5.06-7.1,8-10.51
			c0.4-0.47,1.82-1.03,2.37-0.58c0.14,0.12,0.42,0.46-0.08,1.1l0,0c-3.07,3.89-6.28,8.25-9.79,13.32c1.13,8.32,1.2,15.41,0.2,21.66
			c-0.52,3.27-2.61,7.59-5.6,9.51C195.29,880.31,194.22,880.64,193.14,880.64z M197.61,838.22l0.34,1.85c0.55,2.96,1,6.01,1.34,9.06
			l0.02,0.15l-0.08,0.12c-0.4,0.57-0.8,1.15-1.2,1.72c-2.32,3.31-4.71,6.73-6.57,10.3c-1.68,3.23-4.16,11.45-2.25,15.83
			c0.56,1.28,1.46,2.1,2.68,2.43c1.36,0.38,2.71,0.14,4.02-0.7c2.77-1.78,4.77-5.95,5.25-8.98c0.99-6.21,0.91-13.27-0.23-21.58
			l-0.02-0.15l0.09-0.12c3.55-5.13,6.79-9.54,9.9-13.47c-0.34,0.05-0.9,0.25-1.08,0.47c-3.14,3.65-5.94,7.56-8.5,11.24l-0.56,0.8
			l-0.15-0.96c-0.59-3.79-1.4-7.9-2.48-12.56c-0.11-0.02-0.41,0.04-0.78,0.26c-0.38,0.22-0.55,0.45-0.55,0.53
			c-0.08,3.21-0.98,6.99-2.73,11.55c-0.02,0.06-2.3,5.93-4.56,5.93c0,0-0.01,0-0.01,0c-0.73-0.01-1.31-0.58-1.72-1.7
			c-0.73-1.99-0.79-4.25-0.85-6.44c-0.07-2.31-0.14-4.71-1-6.66c-0.05-0.03-0.33-0.02-0.73,0.18c-0.41,0.22-0.58,0.47-0.59,0.53
			c0.53,1.16,0.6,3.3,0.69,5.78c0.15,4.43,0.33,9.46,3.21,9.49c0.01,0,0.03,0,0.04,0c5.24,0,7.93-9.98,8.64-13.05L197.61,838.22z
			 M194.31,878.57c-1.22,0-2.43-0.5-3.06-1.4c-0.39-0.55-0.56-1.29-0.71-1.95l-0.05-0.22c-1.82-7.69,2.41-14.87,6.52-20.99
			c0.4-0.6,0.81-1.2,1.22-1.79l1.22-1.79l0.1,1.08c0.33,3.54,0.54,7.17,0.6,10.79l0.01,0.73c0.07,3.46,0.15,7.38-1.18,10.81
			c-0.51,1.33-1.55,3.64-2.75,4.27C195.64,878.42,194.98,878.57,194.31,878.57z M198.86,852.66c-0.4,0.59-0.81,1.18-1.21,1.78
			c-4.02,5.99-8.15,12.99-6.41,20.38l0.05,0.23c0.14,0.58,0.29,1.25,0.59,1.68c0.75,1.07,2.65,1.4,3.98,0.7
			c0.7-0.37,1.59-1.81,2.38-3.86c1.27-3.29,1.19-7.13,1.12-10.52l-0.01-0.73C199.3,859.07,199.14,855.83,198.86,852.66z"/>
	</g>
	<g>
		<path class="st1" d="M226.47,827.13c-2.15,3.13-6.23,6.22-10.06,7.29c0.49,1.95,0.2,4.51-0.39,6.25
			c-0.93,2.78-2.91,4.63-5.29,3.44c-2.48-1.24-1.96-5.69-1.21-8.82c-0.04-0.06-0.05-0.15-0.02-0.28c0.07-0.26,0.16-0.5,0.28-0.74
			c0.01-0.02,0.01-0.05,0.02-0.07c0.03-0.11,0.11-0.23,0.2-0.33c1-1.62,2.99-2.6,4.49-2.01c0.46,0.18,0.82,0.48,1.12,0.86
			c3.32-0.44,6-2.51,9.16-5.61C225.11,826.77,227.13,826.18,226.47,827.13z M214.3,836.37c-0.07-0.4-0.24-1.01-0.48-1.56
			c-0.8,0-1.56-0.1-2.26-0.36c-0.39,1.74-0.57,3.43-0.42,5.13c0.1,1.15,1.2,4.65,2.46,2.47
			C214.53,840.43,214.58,837.93,214.3,836.37z"/>
		<path class="st1" d="M212.19,844.86c-0.54,0-1.08-0.14-1.62-0.41c-2.65-1.32-2.26-5.67-1.45-9.14c-0.03-0.12-0.03-0.25,0.01-0.4
			c0.07-0.26,0.16-0.51,0.29-0.78l0.01-0.05c0.04-0.15,0.13-0.3,0.26-0.46c1.15-1.84,3.31-2.78,4.94-2.14
			c0.43,0.17,0.81,0.44,1.14,0.8c3.12-0.49,5.66-2.46,8.73-5.47c0.3-0.29,1.77-0.87,2.29-0.43c0.13,0.11,0.38,0.41,0,0.96l0,0
			c-2.22,3.23-6.26,6.2-9.92,7.34c0.4,2.02,0.07,4.48-0.48,6.1c-0.64,1.91-1.73,3.3-3,3.83
			C213.01,844.78,212.6,844.86,212.19,844.86z M209.88,835.12l0.06,0.09l-0.04,0.17c-0.63,2.63-1.33,7.21,1.01,8.38
			c0.76,0.38,1.49,0.43,2.18,0.14c1.06-0.44,1.99-1.66,2.56-3.35c0.54-1.61,0.86-4.09,0.38-6.03l-0.09-0.37l0.37-0.1
			c3.55-1,7.55-3.88,9.77-7.03c-0.35,0.05-0.89,0.24-1.03,0.36c-3.25,3.19-5.95,5.26-9.38,5.72l-0.22,0.03l-0.14-0.17
			c-0.28-0.35-0.59-0.59-0.96-0.74c-1.27-0.5-3.07,0.33-4.01,1.85l-0.04,0.06c-0.09,0.1-0.11,0.16-0.12,0.18l-0.04,0.14
			C210.03,834.67,209.94,834.89,209.88,835.12C209.89,835.11,209.88,835.11,209.88,835.12z M212.76,843.15
			c-0.07,0-0.14-0.01-0.2-0.02c-1.18-0.26-1.76-2.81-1.82-3.51c-0.14-1.61,0-3.32,0.43-5.25l0.1-0.44l0.42,0.16
			c0.62,0.23,1.31,0.35,2.12,0.34l0.25,0l0.1,0.23c0.27,0.6,0.44,1.25,0.51,1.65c0.32,1.76,0.21,4.28-0.76,5.95
			C213.52,842.96,213.09,843.15,212.76,843.15z M211.84,834.96c-0.34,1.68-0.45,3.19-0.32,4.6c0.08,0.95,0.71,2.7,1.21,2.81
			c0.13,0.03,0.33-0.16,0.52-0.5c0.86-1.48,0.95-3.85,0.66-5.42v0c-0.05-0.31-0.18-0.78-0.36-1.24
			C212.94,835.19,212.36,835.1,211.84,834.96z"/>
	</g>
	<g>
		<path class="st1" d="M237.99,824.15c0.26,4.09,1.51,8.28-0.48,12.43c-1.12,2.33-3.12,4.7-5.56,5.31c-2.7,0.68-4.71-1.09-5.65-3.44
			c-0.75-1.88-1.03-4.08-1.22-6.16c-0.12-1.34-0.55-3.18,0.01-4.52c0.22-0.54,1.29-1.12,1.76-0.89c0.03,0.01,0.06,0.03,0.09,0.05
			c0.23,0.11,0.29,0.25,0.19,0.53c-0.01,0.03-0.02,0.06-0.03,0.09c-0.03,0.07-0.08,0.15-0.15,0.22c-0.54,2.33,0.5,6.11,1.09,8.19
			c0.73,2.58,2.64,6.07,5.85,3.29c4.1-3.55,2.01-10.14,1.83-14.32C235.67,824.11,237.92,823.13,237.99,824.15z"/>
		<path class="st1" d="M230.78,842.43c-2.42,0-4.06-1.87-4.84-3.84c-0.77-1.92-1.05-4.15-1.25-6.26c-0.03-0.27-0.06-0.56-0.1-0.87
			c-0.16-1.25-0.35-2.68,0.14-3.84c0.2-0.48,0.77-0.88,1.25-1.06c0.29-0.11,0.7-0.2,1.05-0.03l0.1,0.05
			c0.29,0.14,0.59,0.43,0.38,1.02l-0.04,0.1c-0.03,0.09-0.09,0.18-0.16,0.27c-0.48,2.28,0.59,6.07,1.11,7.9
			c0.23,0.8,1.09,3.47,2.72,3.96c0.75,0.22,1.59-0.06,2.5-0.85c3.06-2.65,2.5-7.07,2-10.97c-0.14-1.09-0.27-2.11-0.31-3.03
			c-0.04-0.84,1.21-1.58,2.05-1.63c0.58-0.04,0.98,0.28,1.02,0.8c0.06,0.93,0.17,1.89,0.29,2.82c0.38,3.2,0.77,6.5-0.81,9.8
			c-1.38,2.89-3.56,4.95-5.81,5.52C231.6,842.38,231.18,842.43,230.78,842.43z M226.58,827.22c-0.08,0-0.19,0.02-0.33,0.07
			c-0.4,0.15-0.73,0.44-0.81,0.63c-0.4,0.97-0.23,2.28-0.08,3.44c0.04,0.31,0.08,0.61,0.11,0.89c0.19,2.06,0.47,4.22,1.2,6.05
			c0.79,1.98,2.57,3.87,5.19,3.21c2.39-0.6,4.31-3.03,5.3-5.1c1.48-3.09,1.1-6.28,0.73-9.37c-0.11-0.94-0.23-1.91-0.29-2.87l0,0
			c0-0.03-0.01-0.05-0.01-0.05c-0.05-0.04-0.36-0.06-0.8,0.16c-0.46,0.22-0.7,0.52-0.7,0.64c0.04,0.89,0.17,1.9,0.3,2.97
			c0.49,3.89,1.1,8.74-2.27,11.66c-1.13,0.98-2.21,1.32-3.23,1.01c-1.95-0.58-2.92-3.33-3.24-4.49c-0.58-2.07-1.67-5.92-1.09-8.38
			l0.02-0.11l0.08-0.08c0.05-0.05,0.07-0.08,0.07-0.08l0.02-0.06c0.01-0.03,0.02-0.06,0.03-0.08c0,0,0,0-0.01,0l-0.07-0.03
			C226.67,827.23,226.63,827.22,226.58,827.22z"/>
	</g>
	<g>
		<path class="st1" d="M254.61,824.22c-3.19-1.65-6.06,1.96-6.96,5c-0.82,2.78-0.83,5.55-0.68,8.3c0.04,0.71-2.02,1.67-2.16,0.92
			c-1.01-5.25-2.55-10.09-2-15.72c0.08-0.8,2.17-1.62,2.09-0.72c-0.26,2.81,0.02,5.39,0.48,7.93c0.54-2.05,1.5-3.94,3.13-5.28
			c2.15-1.77,5.83-3.21,8-1.72C257.2,823.39,255.19,824.52,254.61,824.22z"/>
		<path class="st1" d="M245.23,839.1c-0.51,0-0.75-0.29-0.81-0.59c-0.22-1.13-0.46-2.26-0.7-3.35c-0.89-4.12-1.74-8-1.3-12.48
			c0.08-0.84,1.44-1.53,2.17-1.46c0.46,0.04,0.74,0.37,0.7,0.81c-0.18,1.97-0.12,3.95,0.22,6.26c0.65-1.65,1.57-2.98,2.76-3.95
			c2.43-2,6.22-3.29,8.47-1.74c0.33,0.23,0.4,0.6,0.19,0.96c-0.36,0.61-1.81,1.36-2.49,1.01l0,0c-0.88-0.45-1.78-0.49-2.68-0.11
			c-1.8,0.77-3.2,3.06-3.73,4.87c-0.82,2.81-0.81,5.58-0.67,8.17c0.05,0.82-1.25,1.51-1.95,1.59
			C245.35,839.1,245.29,839.1,245.23,839.1z M245.18,838.32c0.13,0.02,0.5-0.06,0.89-0.29c0.38-0.23,0.51-0.44,0.51-0.49
			c-0.14-2.65-0.16-5.51,0.7-8.43c0.6-2.04,2.12-4.49,4.17-5.37c1.1-0.47,2.26-0.43,3.34,0.13c0.08,0.03,0.39-0.01,0.8-0.21
			c0.35-0.17,0.56-0.36,0.64-0.46c-1.89-1.21-5.26-0.08-7.47,1.75c-1.4,1.15-2.41,2.86-3,5.08l-0.45,1.68L245,830
			c-0.57-3.07-0.72-5.54-0.49-8c-0.14-0.01-0.46,0.05-0.8,0.25c-0.36,0.21-0.5,0.42-0.51,0.51c-0.43,4.35,0.4,8.18,1.29,12.24
			C244.72,836.08,244.96,837.2,245.18,838.32z"/>
	</g>
	<g>
		<g>
			<path class="st0" d="M281.38,848.4c-0.12,0.82-2.23,1.82-2.27,0.78c-0.54-13.39-1.08-26.83-3.24-39.84
				c-0.51-3.04-0.99-6.15-1.9-9.04c-0.52-1.64-0.94-4.33-3.66-2.73c-1.03,0.61-2.27,3.36-2.81,4.42c-1.42,2.79-2.32,5.82-2.68,8.83
				c-0.09,0.77-0.44,9.38,1.85,7.73c1.02-0.74,2.41-0.18,1,0.84c-6.56,4.72-5.41-7.55-4.52-11.08c1.01-4,4.53-13.43,9.59-13.56
				c3.07-0.08,3.69,4.95,4.22,7.3c1.14,5.08,1.86,10.35,2.45,15.61c0.75,6.73,1.19,13.53,1.52,20.36
				c1.47-7.65,3.57-15.19,7.45-22.28c0.25-0.45,2-1.64,2.19-0.76c1.01,4.52,1.5,9.88,3.41,13.97c0.46,0.97,1.01,2.06,1.94,2.6
				c4.02,2.34,6.88-2.3,8.48-5.09c1.27-2.2,2.28-4.55,3.08-6.93c1.73-5.15,2.21-10.8,0.19-15.44c-0.94-2.16-2.39-4.03-4.29-5.27
				c-1.29-0.83-6.93-3.18-8.39-0.81c-0.45,0.73-2.76,1.38-2.17,0.39c2.87-4.73,10.07-2.92,13.11-0.71
				c6.08,4.42,6.37,13.64,3.81,21.23c-1.92,5.7-5.76,14.03-12.26,14.79c-3.02,0.35-4.92-1.45-5.98-4.12
				c-1.33-3.35-1.95-7.22-2.67-10.93C284.46,828.18,282.85,838.33,281.38,848.4z"/>
			<path class="st0" d="M279.61,850.01c-0.02,0-0.04,0-0.06,0c-0.49-0.03-0.8-0.34-0.82-0.82l-0.01-0.22
				c-0.53-13.11-1.08-26.66-3.23-39.57l-0.11-0.67c-0.46-2.79-0.94-5.67-1.77-8.32c-0.05-0.17-0.1-0.34-0.16-0.53
				c-0.28-0.97-0.6-2.08-1.3-2.35c-0.4-0.16-0.95-0.03-1.64,0.37c-0.8,0.47-1.85,2.6-2.41,3.75c-0.1,0.19-0.18,0.36-0.25,0.51
				c-1.37,2.69-2.28,5.7-2.64,8.7c-0.16,1.31-0.16,6.89,0.83,7.48c0.04,0.02,0.14,0.09,0.41-0.11c0.55-0.4,1.27-0.52,1.75-0.3
				c0.27,0.12,0.44,0.34,0.47,0.61c0.04,0.38-0.22,0.78-0.76,1.17c-1.67,1.2-3.03,1.45-4.05,0.76c-2.68-1.82-1.71-9.73-1.08-12.25
				c1.19-4.73,4.8-13.72,9.96-13.85c0.03,0,0.06,0,0.09,0c2.98,0,3.79,4.03,4.34,6.71c0.07,0.33,0.13,0.63,0.19,0.9
				c1.25,5.54,1.97,11.28,2.46,15.65c0.57,5.06,1,10.5,1.37,17.32c1.69-7.79,3.85-13.86,6.87-19.39c0.26-0.47,1.5-1.38,2.26-1.27
				c0.34,0.05,0.58,0.27,0.65,0.61c0.3,1.32,0.54,2.69,0.8,4.13c0.61,3.4,1.25,6.91,2.58,9.77c0.45,0.97,0.97,1.96,1.78,2.43
				c0.97,0.56,1.89,0.72,2.82,0.47c2.37-0.63,4.23-3.86,5.13-5.42c1.18-2.05,2.21-4.36,3.05-6.86c1.91-5.69,1.98-11.07,0.21-15.16
				c-0.95-2.19-2.39-3.95-4.15-5.09c-1.01-0.65-4.58-2.16-6.67-1.69c-0.55,0.12-0.94,0.37-1.17,0.76c-0.41,0.67-2.07,1.35-2.71,0.96
				c-0.24-0.15-0.42-0.49-0.13-0.98c0.97-1.59,2.44-2.59,4.39-2.98c3.25-0.65,7.13,0.59,9.29,2.16c6.67,4.85,6.3,14.7,3.95,21.67
				c-2.17,6.45-6.12,14.29-12.59,15.05c-2.91,0.34-5.12-1.17-6.38-4.37c-1.17-2.94-1.8-6.28-2.41-9.51
				c-0.02-0.09-0.03-0.18-0.05-0.28c-3.84,8.77-5.42,18.11-6.93,28.48l0,0C281.65,849.23,280.43,850.01,279.61,850.01z
				 M271.77,796.69c0.23,0,0.46,0.04,0.66,0.12c1.05,0.42,1.44,1.77,1.76,2.86c0.05,0.18,0.1,0.35,0.15,0.51
				c0.85,2.7,1.33,5.61,1.8,8.42l0.11,0.67c2.15,12.96,2.7,26.53,3.24,39.66l0.01,0.22c0,0.04,0.01,0.06,0.01,0.06
				c0.03,0.02,0.25,0.04,0.62-0.13c0.48-0.21,0.84-0.56,0.86-0.76c1.59-10.87,3.24-20.62,7.5-29.81l0.51-1.1l0.23,1.19
				c0.1,0.49,0.19,0.99,0.28,1.49c0.6,3.19,1.22,6.5,2.36,9.37c1.14,2.87,3.01,4.18,5.57,3.88c6.06-0.71,9.84-8.29,11.94-14.52
				c2.26-6.72,2.66-16.19-3.67-20.79c-1.97-1.43-5.68-2.63-8.68-2.03c-1.68,0.34-2.97,1.19-3.81,2.53c0.43-0.05,1.25-0.39,1.44-0.71
				c0.35-0.57,0.91-0.94,1.66-1.11c2.34-0.53,6.15,1.07,7.26,1.79c1.89,1.22,3.42,3.1,4.44,5.44c1.85,4.26,1.79,9.85-0.18,15.72
				c-0.86,2.55-1.9,4.9-3.11,7c-1.51,2.63-3.24,5.15-5.6,5.78c-1.12,0.3-2.27,0.12-3.42-0.55c-1.01-0.59-1.59-1.69-2.09-2.78
				c-1.38-2.94-2.02-6.51-2.64-9.96c-0.26-1.43-0.5-2.79-0.8-4.1c-0.25-0.11-1.3,0.55-1.47,0.86c-3.36,6.15-5.64,12.99-7.41,22.17
				l-0.61,3.19l-0.16-3.25c-0.4-8.28-0.87-14.55-1.52-20.33c-0.49-4.36-1.21-10.07-2.44-15.57c-0.06-0.27-0.12-0.58-0.19-0.92
				c-0.49-2.43-1.23-6.09-3.58-6.09c-0.02,0-0.04,0-0.06,0c-4.86,0.13-8.31,9.62-9.22,13.26c-0.79,3.16-1.24,10.05,0.76,11.41
				c0.72,0.49,1.79,0.24,3.16-0.75c0.31-0.22,0.4-0.37,0.43-0.43c-0.13-0.06-0.55-0.08-0.98,0.23c-0.56,0.41-1,0.3-1.26,0.15
				c-1.73-1.02-1.21-8.17-1.2-8.24c0.37-3.1,1.31-6.2,2.72-8.96c0.07-0.14,0.15-0.31,0.25-0.5c0.87-1.77,1.79-3.53,2.71-4.08
				C270.73,796.87,271.28,796.69,271.77,796.69z M293.12,798.72L293.12,798.72L293.12,798.72z"/>
		</g>
		<g>
			<path class="st0" d="M319.47,820.29c-6.29,2.1-8.06-8.88-6.23-13.6c1.57-4.04,7.55-5.55,8.07-0.61c0.37,3.52-2.83,7.52-6.05,7.72
				c0.75,3.29,2.71,5.9,6.82,3.38c4.75-2.92,7.73-9.57,10.8-14.1c0.35-0.52,2.47-1.17,1.92-0.17
				C331.51,808.87,326.08,818.09,319.47,820.29z M314.87,809.88c-0.01,0.67,0.02,1.38,0.09,2.11c0.1,0,0.18,0.02,0.26,0.05
				c3.18,1.65,5.96-7.6,2.06-7.44C315.52,804.68,314.89,808.75,314.87,809.88z"/>
			<path class="st0" d="M317.96,820.94c-1.19,0-2.26-0.48-3.16-1.42c-2.74-2.88-3.29-9.45-1.92-12.97c0.96-2.48,3.6-4.24,5.9-3.94
				c1.65,0.22,2.71,1.47,2.92,3.43c0.2,1.84-0.53,3.95-1.95,5.62c-1.15,1.36-2.59,2.25-4.01,2.48c0.36,1.36,1.06,2.92,2.35,3.46
				c1.01,0.42,2.28,0.17,3.78-0.75c3.47-2.13,6.06-6.44,8.34-10.24c0.8-1.34,1.56-2.6,2.34-3.75c0.35-0.51,1.84-1.12,2.44-0.75
				c0.09,0.05,0.5,0.35,0.15,0.98c-3.89,7.06-9.18,15.45-15.54,17.57C319.03,820.85,318.48,820.94,317.96,820.94z M318.29,803.36
				c-1.68,0-3.84,1.3-4.68,3.47c-1.28,3.29-0.72,9.55,1.76,12.15c1.09,1.14,2.43,1.46,3.98,0.94l0,0
				c6.1-2.03,11.26-10.22,15.08-17.15c-0.38,0.03-1.09,0.32-1.23,0.53c-0.77,1.13-1.52,2.39-2.32,3.72
				c-2.33,3.87-4.97,8.27-8.6,10.5c-1.72,1.06-3.23,1.33-4.49,0.81c-1.37-0.58-2.38-2.11-2.91-4.43l-0.1-0.45l0.46-0.03
				c1.35-0.08,2.78-0.9,3.92-2.26c1.28-1.52,1.95-3.4,1.77-5.04c-0.17-1.59-0.97-2.57-2.25-2.74
				C318.55,803.37,318.42,803.36,318.29,803.36z M315.99,812.63c-0.32,0-0.64-0.08-0.95-0.24c0,0,0,0,0,0c0,0-0.02-0.01-0.08-0.01
				l-0.34-0.01l-0.04-0.34c-0.07-0.71-0.1-1.44-0.09-2.15v0c0.02-0.91,0.57-5.57,2.78-5.66c0.96-0.04,1.69,0.42,2.05,1.3
				c0.72,1.74-0.14,4.97-1.7,6.4C317.1,812.39,316.54,812.63,315.99,812.63z M315.32,811.66c0.03,0.01,0.05,0.02,0.08,0.03
				c0.55,0.29,1.12,0.17,1.69-0.35c1.31-1.2,2.1-4.1,1.51-5.53c-0.24-0.58-0.67-0.85-1.3-0.82c-1.28,0.05-2,3.46-2.03,4.9
				C315.25,810.48,315.27,811.07,315.32,811.66z"/>
		</g>
		<g>
			<path class="st0" d="M355.17,797.66c-0.52,4.75-1.53,11-5.66,14.03c-3.89,2.85-6.63,0.01-8.39-3.54
				c-0.5,2.92-1.63,5.71-4.08,6.63c-4.7,1.77-4.93-5.25-4.87-8.21c0.05-2.71,0.43-7.85,4.28-7.83c1.75,0.01,2.99,1.28,3.71,2.9
				c0.55-0.26,1.13-0.33,1.24,0.08c0.69,2.71,1.74,5.99,3.66,8.12c1.25,1.39,1.44,1.65,3.15,0.77c1.45-0.74,1.95-1.86,2.58-3.31
				c1.26-2.91,1.61-6.05,2.37-9.1C353.31,797.62,355.26,796.83,355.17,797.66z M338.86,807.88c-0.18-0.06-0.28-0.21-0.21-0.49
				c0.37-1.41-0.23-5.71-2.12-6.56c-2.43-1.08-2.12,5.06-2.06,6.38c0.05,0.94,0.28,4.86,0.97,5.29c1.53,0.94,2.45-0.93,2.77-1.95
				C338.5,809.66,338.71,808.77,338.86,807.88z"/>
			<path class="st0" d="M335.65,815.45c-0.61,0-1.16-0.17-1.64-0.51c-1.57-1.11-2.32-3.93-2.23-8.38c0.11-5.45,1.67-8.21,4.66-8.21
				c0.01,0,0.01,0,0.02,0c1.62,0.01,3,0.99,3.9,2.79c0.31-0.1,0.7-0.17,1.01-0.02c0.21,0.1,0.35,0.27,0.41,0.5
				c0.61,2.38,1.63,5.8,3.57,7.95l0.07,0.07c1.16,1.29,1.21,1.34,2.62,0.62c1.34-0.69,1.81-1.76,2.4-3.12
				c0.86-1.98,1.3-4.13,1.73-6.2c0.19-0.93,0.39-1.89,0.62-2.84c0.16-0.66,1.5-1.3,2.19-1.17c0.4,0.07,0.63,0.38,0.58,0.77v0
				c-0.59,5.39-1.74,11.31-5.82,14.3c-1.47,1.08-2.9,1.46-4.25,1.13c-1.54-0.38-2.96-1.67-4.2-3.84c-0.72,3.12-2.1,5.09-4.11,5.85
				C336.63,815.35,336.12,815.45,335.65,815.45z M336.44,799.12c-2.51,0-3.78,2.44-3.88,7.45c-0.08,4.06,0.6,6.81,1.9,7.73
				c0.64,0.45,1.44,0.49,2.44,0.11c1.95-0.74,3.24-2.87,3.83-6.33l0.2-1.18l0.53,1.07c1.26,2.55,2.68,4.03,4.2,4.4
				c1.12,0.27,2.33-0.06,3.61-1c3.82-2.8,4.92-8.48,5.5-13.69c-0.33-0.02-1.15,0.37-1.24,0.61c-0.23,0.92-0.42,1.88-0.61,2.8
				c-0.43,2.11-0.88,4.3-1.78,6.35c-0.63,1.44-1.17,2.69-2.76,3.5c-1.87,0.96-2.28,0.63-3.55-0.79l-0.07-0.07
				c-2.05-2.28-3.12-5.82-3.75-8.28c-0.03-0.01-0.28-0.02-0.69,0.18l-0.36,0.17l-0.16-0.36c-0.44-0.99-1.47-2.66-3.36-2.67
				C336.45,799.12,336.44,799.12,336.44,799.12z M336.26,813.15c-0.33,0-0.67-0.11-1.01-0.32c-0.6-0.37-0.99-2.26-1.16-5.6
				c-0.19-3.82,0.19-6.01,1.19-6.69c0.28-0.19,0.75-0.36,1.42-0.06c2.13,0.95,2.75,5.47,2.34,7.02c0,0.01-0.01,0.02-0.01,0.03
				l0.27,0.09l-0.05,0.33c-0.16,0.97-0.38,1.86-0.65,2.72c-0.19,0.59-0.74,1.99-1.79,2.38
				C336.62,813.11,336.44,813.15,336.26,813.15z M336,801.09c-0.13,0-0.22,0.04-0.28,0.09c-0.34,0.23-1.09,1.28-0.85,6.01
				c0.15,2.94,0.52,4.76,0.79,4.98c0.32,0.2,0.61,0.25,0.88,0.15c0.59-0.22,1.07-1.12,1.31-1.89c0.24-0.76,0.43-1.53,0.58-2.37
				c-0.16-0.16-0.25-0.42-0.16-0.77c0.35-1.32-0.25-5.37-1.91-6.11C336.22,801.11,336.09,801.09,336,801.09z"/>
		</g>
		<g>
			<path class="st0" d="M375.76,792.36c-1.53,6.44-7.55,31.01-17.55,24.99c-4.22-2.54-4.02-11.74-4.57-16.4
				c-0.97-8.17-1.66-16.44-2.17-24.72c-0.04-0.63,1.81-1.43,1.88-0.8c0.67,6.6,1.18,13.24,1.9,19.83
				c0.63,5.83,1.06,12.05,2.76,17.53c0.67,2.14,2.26,4.32,4.82,3.59c2.79-0.8,4.57-5.23,5.67-7.77c2.23-5.15,3.29-10.6,5.43-15.76
				C374.13,792.34,375.95,791.56,375.76,792.36z"/>
			<path class="st0" d="M361.3,818.68c-1.09,0-2.19-0.33-3.29-1c-3.62-2.18-4.13-8.88-4.5-13.77c-0.08-1.07-0.16-2.08-0.26-2.92
				c-0.91-7.68-1.62-15.77-2.17-24.74c-0.05-0.75,1.15-1.39,1.81-1.44c0.58-0.05,0.81,0.28,0.84,0.58c0.29,2.83,0.55,5.71,0.8,8.49
				c0.34,3.72,0.69,7.57,1.1,11.33c0.1,0.91,0.19,1.83,0.29,2.75c0.51,4.98,1.03,10.12,2.46,14.71c0.31,0.99,1.53,4.14,4.34,3.33
				c2.47-0.71,4.21-4.74,5.25-7.15l0.17-0.4c1.15-2.65,2-5.44,2.83-8.14c0.77-2.52,1.57-5.12,2.6-7.61
				c0.24-0.59,1.59-1.23,2.18-1.03c0.25,0.08,0.51,0.34,0.4,0.78l0,0c-3.59,15.08-7.85,23.76-12.67,25.78
				C362.76,818.53,362.03,818.68,361.3,818.68z M352.97,775.59c-0.14,0.01-0.42,0.08-0.71,0.26c-0.28,0.17-0.39,0.32-0.4,0.37
				c0.55,8.94,1.26,17.02,2.17,24.69c0.1,0.86,0.18,1.88,0.26,2.96c0.36,4.72,0.85,11.19,4.12,13.16c1.64,0.99,3.2,1.15,4.76,0.5
				c3.14-1.32,7.79-6.74,12.18-25.1c-0.34,0.07-0.97,0.39-1.07,0.59c-1.02,2.46-1.81,5.04-2.58,7.54c-0.83,2.72-1.69,5.53-2.86,8.22
				l-0.17,0.4c-1.16,2.7-2.92,6.78-5.75,7.59c-2.77,0.8-4.56-1.46-5.3-3.85c-1.45-4.66-1.98-9.84-2.49-14.86
				c-0.09-0.92-0.19-1.84-0.29-2.74c-0.41-3.77-0.76-7.62-1.1-11.35C353.51,781.21,353.25,778.37,352.97,775.59z"/>
		</g>
		<g>
			<path class="st0" d="M408.8,768.67c-11.51,2.89-23.31,6.34-34.82,10.7c1.71,14.7,3.51,29.38,4.92,44.15
				c0.09,0.93-2.15,1.95-2.26,1.14c-1.9-14.73-3.41-29.58-5.01-44.39c-5.29,2.07-10.5,4.34-15.59,6.84
				c1.08-0.14,0.12,1.19-0.58,1.39c-1.62,0.47-3.25,0.88-4.88,1.29c-1.28,0.33-0.48-1.01,0.18-1.36c6.72-3.59,13.67-6.68,20.74-9.42
				c-0.3-2.78-0.6-5.56-0.91-8.33c-0.11-0.95,2.18-1.94,2.27-1.15c0.32,2.87,0.65,5.73,0.98,8.59c11.8-4.43,23.89-7.9,35.73-11.01
				C411.05,766.72,409.66,768.46,408.8,768.67z"/>
			<path class="st0" d="M377.06,825.34c-0.53,0-0.77-0.33-0.81-0.63c-1.55-12.04-2.87-24.37-4.14-36.29
				c-0.27-2.54-0.54-5.07-0.81-7.6c-5,1.97-9.85,4.09-14.42,6.31c0.01,0.03,0.02,0.06,0.02,0.08c0.13,0.64-0.74,1.49-1.34,1.67
				c-1.5,0.43-3.02,0.82-4.49,1.2l-0.4,0.1c-0.78,0.2-1.04-0.13-1.12-0.35c-0.24-0.61,0.52-1.47,1.02-1.74
				c6.29-3.36,13-6.41,20.5-9.33c-0.29-2.68-0.58-5.36-0.88-8.04c-0.05-0.45,0.21-0.91,0.74-1.3c0.56-0.41,1.39-0.71,1.89-0.49
				c0.23,0.1,0.38,0.31,0.41,0.56c0.3,2.7,0.61,5.4,0.93,8.1c12.67-4.72,25.5-8.28,35.3-10.85c0.3-0.08,0.72-0.15,0.99,0.12
				c0.09,0.09,0.23,0.29,0.13,0.63c-0.17,0.6-1.03,1.4-1.68,1.56l0,0c-13.02,3.27-24.31,6.74-34.5,10.58
				c0.29,2.51,0.59,5.01,0.88,7.52c1.4,11.89,2.84,24.18,4,36.33c0.09,0.92-1.19,1.75-2.06,1.85
				C377.16,825.34,377.11,825.34,377.06,825.34z M377.01,824.56c0.17,0.02,0.61-0.1,1.03-0.4c0.34-0.24,0.47-0.48,0.46-0.61
				c-1.16-12.14-2.6-24.43-4-36.32c-0.31-2.61-0.61-5.22-0.92-7.82l-0.04-0.3l0.28-0.11c10.29-3.89,21.69-7.4,34.87-10.71
				c0.35-0.09,0.81-0.53,1.02-0.82c-0.02,0-0.04,0.01-0.07,0.02c-9.9,2.6-22.9,6.2-35.69,11l-0.47,0.17l-0.06-0.49
				c-0.33-2.84-0.66-5.69-0.98-8.54c-0.18-0.02-0.65,0.11-1.07,0.42c-0.28,0.21-0.45,0.44-0.43,0.59c0.31,2.78,0.61,5.56,0.92,8.34
				l0.03,0.3l-0.28,0.11c-7.59,2.94-14.36,6.01-20.69,9.4c-0.27,0.14-0.52,0.47-0.61,0.67c0.04-0.01,0.09-0.02,0.16-0.03l0.4-0.1
				c1.47-0.37,2.98-0.76,4.47-1.19c0.27-0.08,0.59-0.41,0.72-0.63l-2.32,0.3l2.11-1.04c4.92-2.42,10.18-4.73,15.62-6.85l0.47-0.19
				l0.05,0.51c0.29,2.7,0.58,5.41,0.87,8.11C374.15,800.24,375.46,812.54,377.01,824.56z"/>
		</g>
		<g>
			<path class="st0" d="M411.04,783.41c-1.04,4.7-5.89,12.39-9.95,15.04c-1.88,1.22-3.72,1.5-4.99-0.21c-1.53-2.07-1.5-5.5-1.89-8.1
				c-0.18-1.21-0.21-3.62-1.04-4.5c-3.13-3.33-5.83,2.97-6.5,5.31c0.73,6.63,1.46,13.27,2.17,19.9c0.1,0.95-2.19,1.94-2.28,1.15
				c-1.57-14.68-3.07-29.38-4.65-44.06c-0.1-0.89,2.05-1.82,2.13-1.08c0.74,6.92,1.5,13.84,2.26,20.76c1.28-2.14,3.11-3.97,5.33-4.6
				c4.82-1.38,4.61,6.1,5.14,9.3c0.37,2.23,0.92,6.93,4.05,4.76c1.73-1.2,3.24-3.94,4.32-5.7c1.44-2.34,3-4.92,3.98-7.48
				C409.33,783.37,411.22,782.58,411.04,783.41z"/>
			<path class="st0" d="M386.99,812.69c-0.15,0-0.28-0.02-0.4-0.08c-0.23-0.1-0.38-0.31-0.41-0.56c-0.76-7.07-1.5-14.14-2.24-21.21
				c-0.78-7.49-1.6-15.24-2.41-22.85c-0.05-0.43,0.21-0.88,0.72-1.25c0.53-0.39,1.31-0.66,1.79-0.45c0.23,0.1,0.37,0.3,0.4,0.54
				c0.71,6.65,1.44,13.26,2.14,19.68c1.4-1.98,3.13-3.33,4.95-3.85c1.12-0.32,2.09-0.22,2.87,0.31c1.9,1.28,2.25,4.7,2.54,7.45
				c0.07,0.69,0.14,1.34,0.22,1.86l0.06,0.38c0.24,1.52,0.65,4.06,1.76,4.54c0.42,0.18,0.96,0.04,1.61-0.41
				c1.45-1.01,2.8-3.25,3.79-4.89c0.15-0.24,0.29-0.48,0.42-0.7c1.32-2.14,2.95-4.81,3.95-7.41c0.24-0.62,1.59-1.28,2.23-1.08
				c0.35,0.1,0.52,0.42,0.43,0.8v0c-1.02,4.6-5.76,12.44-10.12,15.28c-2.3,1.5-4.26,1.39-5.52-0.3c-1.25-1.68-1.51-4.19-1.74-6.41
				c-0.07-0.66-0.13-1.28-0.22-1.87c-0.04-0.27-0.07-0.6-0.11-0.96c-0.12-1.16-0.28-2.74-0.83-3.34c-0.64-0.68-1.26-0.94-1.9-0.78
				c-1.75,0.43-3.32,3.79-3.92,5.86l0,0.01c0.73,6.61,1.45,13.21,2.16,19.82c0.05,0.45-0.22,0.92-0.76,1.31
				C388.05,812.44,387.46,812.69,386.99,812.69z M386.95,811.91c0.17,0.02,0.65-0.11,1.07-0.42c0.28-0.21,0.45-0.44,0.44-0.59
				c-0.71-6.61-1.44-13.21-2.16-19.82l-0.02-0.16l0.02-0.07c0.02-0.06,1.67-5.79,4.5-6.48c0.92-0.23,1.81,0.12,2.65,1.01
				c0.74,0.78,0.9,2.45,1.04,3.79c0.03,0.34,0.07,0.66,0.1,0.92c0.09,0.6,0.16,1.23,0.22,1.9c0.22,2.11,0.47,4.51,1.59,6.02
				c1,1.35,2.5,1.39,4.47,0.11c4.06-2.65,8.72-10.24,9.76-14.69c-0.35,0.05-1.05,0.41-1.15,0.62c-1.02,2.67-2.68,5.37-4.01,7.54
				c-0.13,0.22-0.27,0.45-0.42,0.69c-1.08,1.79-2.43,4.03-4.01,5.13c-0.88,0.62-1.68,0.78-2.36,0.49c-1.51-0.64-1.94-3.34-2.23-5.13
				l-0.06-0.37c-0.09-0.54-0.16-1.2-0.23-1.9c-0.26-2.45-0.61-5.81-2.2-6.88c-0.59-0.4-1.32-0.47-2.22-0.21
				c-1.9,0.54-3.71,2.12-5.1,4.43l-0.6,0.99l-0.13-1.15c-0.74-6.73-1.5-13.69-2.25-20.69c-0.19-0.01-0.62,0.12-1,0.41
				c-0.29,0.22-0.37,0.41-0.36,0.51c0.82,7.61,1.63,15.36,2.41,22.86C385.46,797.81,386.2,804.86,386.95,811.91z"/>
		</g>
	</g>
</g>
<g>
	<path d="M-923.31,253.74h-7.39v6.55h6.84v1.99h-6.84v8.38h-2.22v-18.93h9.61V253.74z"/>
	<path d="M-910.33,270.67h-2.17v-2.11h-0.05c-0.94,1.62-2.33,2.43-4.16,2.43c-1.35,0-2.4-0.36-3.16-1.07
		c-0.76-0.71-1.14-1.66-1.14-2.84c0-2.53,1.49-4,4.46-4.41l4.05-0.57c0-2.3-0.93-3.45-2.79-3.45c-1.63,0-3.1,0.55-4.41,1.66v-2.22
		c1.33-0.84,2.86-1.27,4.59-1.27c3.18,0,4.77,1.68,4.77,5.04V270.67z M-912.49,263.83l-3.26,0.45c-1,0.14-1.76,0.39-2.27,0.75
		c-0.51,0.36-0.77,0.99-0.77,1.89c0,0.66,0.24,1.2,0.71,1.62s1.1,0.63,1.88,0.63c1.07,0,1.96-0.38,2.66-1.13
		c0.7-0.75,1.05-1.71,1.05-2.86V263.83z"/>
	<path d="M-895.62,257.15l-5.39,13.52h-2.12l-5.12-13.52h2.38l3.43,9.82c0.25,0.72,0.41,1.35,0.48,1.89h0.05
		c0.09-0.68,0.23-1.29,0.42-1.83l3.59-9.87H-895.62z"/>
	<path d="M-892.19,253.72c-0.39,0-0.72-0.13-0.99-0.4c-0.27-0.26-0.41-0.6-0.41-1s0.14-0.74,0.41-1.01c0.27-0.27,0.6-0.4,0.99-0.4
		c0.4,0,0.73,0.13,1.01,0.4c0.28,0.27,0.42,0.6,0.42,1.01c0,0.39-0.14,0.72-0.42,0.99C-891.46,253.58-891.8,253.72-892.19,253.72z
		 M-891.14,270.67h-2.17v-13.52h2.17V270.67z"/>
	<path d="M-877.54,270.05c-1.04,0.62-2.27,0.94-3.7,0.94c-1.93,0-3.48-0.63-4.67-1.88s-1.78-2.88-1.78-4.88
		c0-2.23,0.64-4.02,1.91-5.37c1.28-1.35,2.98-2.03,5.11-2.03c1.19,0,2.24,0.22,3.14,0.66v2.22c-1-0.7-2.08-1.06-3.22-1.06
		c-1.38,0-2.51,0.5-3.4,1.48c-0.88,0.99-1.33,2.29-1.33,3.9c0,1.58,0.42,2.83,1.25,3.75c0.83,0.92,1.95,1.37,3.35,1.37
		c1.18,0,2.29-0.39,3.33-1.17V270.05z"/>
	<path d="M-868.62,270.98c-2,0-3.59-0.63-4.79-1.89s-1.79-2.94-1.79-5.02c0-2.27,0.62-4.04,1.86-5.32c1.24-1.28,2.92-1.91,5.03-1.91
		c2.01,0,3.59,0.62,4.72,1.86s1.7,2.96,1.7,5.16c0,2.16-0.61,3.88-1.83,5.18C-864.93,270.34-866.56,270.98-868.62,270.98z
		 M-868.46,258.65c-1.39,0-2.49,0.47-3.3,1.42c-0.81,0.95-1.21,2.25-1.21,3.91c0,1.6,0.41,2.86,1.23,3.79
		c0.82,0.92,1.91,1.39,3.29,1.39c1.4,0,2.47-0.45,3.23-1.36c0.75-0.91,1.13-2.2,1.13-3.87c0-1.69-0.38-2.99-1.13-3.91
		C-865.98,259.11-867.06,258.65-868.46,258.65z"/>
	<path d="M-847.2,270.67h-2.17v-7.71c0-2.87-1.05-4.3-3.14-4.3c-1.08,0-1.98,0.41-2.69,1.22c-0.71,0.81-1.06,1.84-1.06,3.08v7.71
		h-2.17v-13.52h2.17v2.24h0.05c1.02-1.71,2.5-2.56,4.44-2.56c1.48,0,2.61,0.48,3.39,1.43c0.78,0.96,1.17,2.33,1.17,4.14V270.67z"/>
</g>
<g>
	<path d="M-934.02,529.65v-2.32c1.18,0.87,2.48,1.31,3.89,1.31c1.9,0,2.85-0.63,2.85-1.9c0-0.36-0.08-0.67-0.24-0.92
		s-0.38-0.47-0.66-0.67c-0.28-0.19-0.6-0.37-0.98-0.52c-0.37-0.15-0.78-0.31-1.21-0.48c-0.6-0.24-1.12-0.48-1.58-0.72
		s-0.83-0.51-1.14-0.82s-0.53-0.65-0.69-1.04c-0.15-0.39-0.23-0.84-0.23-1.36c0-0.63,0.15-1.2,0.44-1.68s0.68-0.9,1.16-1.23
		c0.48-0.33,1.04-0.58,1.66-0.75s1.26-0.25,1.92-0.25c1.17,0,2.22,0.2,3.14,0.61v2.19c-1-0.65-2.14-0.98-3.43-0.98
		c-0.4,0-0.77,0.05-1.1,0.14c-0.33,0.09-0.6,0.22-0.84,0.39c-0.23,0.17-0.41,0.37-0.54,0.6c-0.13,0.23-0.19,0.49-0.19,0.77
		c0,0.35,0.06,0.65,0.19,0.88c0.13,0.24,0.31,0.45,0.56,0.63c0.25,0.18,0.55,0.35,0.9,0.5c0.35,0.15,0.75,0.31,1.2,0.49
		c0.6,0.23,1.13,0.46,1.61,0.71c0.47,0.24,0.88,0.51,1.21,0.82c0.33,0.3,0.59,0.65,0.77,1.05c0.18,0.4,0.27,0.87,0.27,1.41
		c0,0.67-0.15,1.25-0.44,1.74c-0.29,0.49-0.69,0.9-1.18,1.23c-0.49,0.33-1.06,0.57-1.7,0.73s-1.32,0.24-2.02,0.24
		C-931.8,530.46-933,530.19-934.02,529.65z"/>
	<path d="M-919.57,530.14h-2.17v-20.01h2.17V530.14z"/>
	<path d="M-904.26,530.14h-2.17V528h-0.05c-0.9,1.64-2.29,2.46-4.17,2.46c-3.22,0-4.83-1.92-4.83-5.75v-8.08h2.15v7.74
		c0,2.85,1.09,4.28,3.27,4.28c1.06,0,1.93-0.39,2.61-1.17c0.68-0.78,1.02-1.8,1.02-3.06v-7.79h2.17V530.14z"/>
	<path d="M-888.35,529.06c0,4.96-2.38,7.44-7.13,7.44c-1.67,0-3.13-0.32-4.38-0.95v-2.17c1.52,0.84,2.97,1.27,4.36,1.27
		c3.33,0,4.99-1.77,4.99-5.31v-1.48h-0.05c-1.03,1.72-2.58,2.59-4.65,2.59c-1.68,0-3.03-0.6-4.06-1.8c-1.02-1.2-1.54-2.81-1.54-4.84
		c0-2.3,0.55-4.12,1.66-5.48s2.62-2.03,4.53-2.03c1.82,0,3.17,0.73,4.05,2.19h0.05v-1.87h2.17V529.06z M-890.52,524.03v-1.99
		c0-1.07-0.36-1.99-1.09-2.76c-0.73-0.77-1.63-1.15-2.71-1.15c-1.34,0-2.38,0.49-3.14,1.46c-0.76,0.97-1.13,2.33-1.13,4.09
		c0,1.5,0.36,2.71,1.09,3.61c0.73,0.9,1.69,1.35,2.88,1.35c1.21,0,2.2-0.43,2.96-1.29C-890.9,526.48-890.52,525.37-890.52,524.03z"
		/>
	<path d="M-873.04,530.14h-2.17V528h-0.05c-0.9,1.64-2.29,2.46-4.17,2.46c-3.22,0-4.83-1.92-4.83-5.75v-8.08h2.15v7.74
		c0,2.85,1.09,4.28,3.27,4.28c1.06,0,1.93-0.39,2.61-1.17c0.68-0.78,1.02-1.8,1.02-3.06v-7.79h2.17V530.14z"/>
	<path d="M-857.45,530.14h-2.17v-7.71c0-2.87-1.05-4.3-3.14-4.3c-1.08,0-1.98,0.41-2.69,1.22c-0.71,0.81-1.06,1.84-1.06,3.08v7.71
		h-2.17v-13.52h2.17v2.24h0.05c1.02-1.71,2.5-2.56,4.44-2.56c1.48,0,2.61,0.48,3.39,1.43s1.17,2.33,1.17,4.14V530.14z"/>
</g>
<g>
	<path d="M-122.02-55.5h-2.17v-20.01h2.17V-55.5z"/>
	<path d="M-111.98-55.18c-2,0-3.59-0.63-4.79-1.89s-1.79-2.94-1.79-5.02c0-2.27,0.62-4.04,1.86-5.32c1.24-1.28,2.92-1.91,5.03-1.91
		c2.01,0,3.59,0.62,4.72,1.86s1.7,2.96,1.7,5.16c0,2.16-0.61,3.88-1.83,5.18C-108.3-55.83-109.93-55.18-111.98-55.18z
		 M-111.82-67.51c-1.39,0-2.49,0.47-3.3,1.42c-0.81,0.95-1.21,2.25-1.21,3.91c0,1.6,0.41,2.86,1.23,3.79
		c0.82,0.92,1.91,1.39,3.29,1.39c1.4,0,2.47-0.45,3.23-1.36c0.75-0.91,1.13-2.2,1.13-3.87c0-1.69-0.38-2.99-1.13-3.91
		C-109.35-67.05-110.43-67.51-111.82-67.51z"/>
	<path d="M-90.26-56.58c0,4.96-2.38,7.44-7.13,7.44c-1.67,0-3.13-0.32-4.38-0.95v-2.17c1.52,0.84,2.97,1.27,4.36,1.27
		c3.33,0,4.99-1.77,4.99-5.31v-1.48h-0.05c-1.03,1.72-2.58,2.59-4.65,2.59c-1.68,0-3.03-0.6-4.06-1.8c-1.02-1.2-1.54-2.81-1.54-4.84
		c0-2.3,0.55-4.12,1.66-5.48c1.1-1.36,2.62-2.03,4.53-2.03c1.82,0,3.17,0.73,4.05,2.19h0.05v-1.87h2.17V-56.58z M-92.42-61.61v-1.99
		c0-1.07-0.36-1.99-1.09-2.76c-0.73-0.77-1.63-1.15-2.71-1.15c-1.34,0-2.38,0.49-3.14,1.46c-0.76,0.97-1.13,2.33-1.13,4.09
		c0,1.5,0.36,2.71,1.09,3.61c0.73,0.9,1.69,1.35,2.88,1.35c1.21,0,2.2-0.43,2.96-1.29C-92.8-59.16-92.42-60.26-92.42-61.61z"/>
	<path d="M-80.22-55.18c-2,0-3.59-0.63-4.79-1.89s-1.79-2.94-1.79-5.02c0-2.27,0.62-4.04,1.86-5.32c1.24-1.28,2.92-1.91,5.03-1.91
		c2.01,0,3.59,0.62,4.72,1.86s1.7,2.96,1.7,5.16c0,2.16-0.61,3.88-1.83,5.18C-76.54-55.83-78.17-55.18-80.22-55.18z M-80.06-67.51
		c-1.39,0-2.49,0.47-3.3,1.42c-0.81,0.95-1.21,2.25-1.21,3.91c0,1.6,0.41,2.86,1.23,3.79c0.82,0.92,1.91,1.39,3.29,1.39
		c1.4,0,2.47-0.45,3.23-1.36c0.75-0.91,1.13-2.2,1.13-3.87c0-1.69-0.38-2.99-1.13-3.91C-77.59-67.05-78.66-67.51-80.06-67.51z"/>
</g>
</svg>
