<svg xmlns="http://www.w3.org/2000/svg" width="120" height="91.648" viewBox="0 0 120 91.648">
  <g id="Naturally_sweetend" data-name="Naturally sweetend" transform="translate(9231.187 -2749)">
    <path id="Path_161" data-name="Path 161" d="M154.362,263.17h-3.636l-.007,47.126H265.26a5.483,5.483,0,0,0,5.454-5.454V266.658l-3.636-1.751v39.936a1.775,1.775,0,0,1-1.818,1.818H154.346Z" transform="translate(-9381.906 2530.352)" fill="#fff"/>
    <path id="Path_162" data-name="Path 162" d="M244.4,175.787a1.818,1.818,0,0,0-.738,3.459C253,183.864,258.5,188.286,261.8,192.5a23.13,23.13,0,0,1,4.566,10.4q-52.139,0-104.266.037l56.884-19.856h0a1.821,1.821,0,0,0-1.2-3.438q-33.514,11.695-67.026,23.393l.6,3.537h.313q58.507,0,116.991-.037h2.088l-.284-2.067a28.3,28.3,0,0,0-5.8-14.21c-3.745-4.781-9.731-9.492-19.38-14.267a1.814,1.814,0,0,0-.874-.2Z" transform="translate(-9381.932 2590.502)" fill="#fff" fill-rule="evenodd"/>
    <path id="Path_163" data-name="Path 163" d="M156.59,326.2v3.636H272.942V326.2Z" transform="translate(-9385.948 2486.966)" fill="#fff" fill-rule="evenodd"/>
    <path id="Path_164" data-name="Path 164" d="M156.59,349.54v3.636H272.942V349.54Z" transform="translate(-9385.948 2470.9)" fill="#fff" fill-rule="evenodd"/>
    <path id="Path_165" data-name="Path 165" d="M376.164,164.616c-3.543,0-6.717-.284-9.495.61a6.574,6.574,0,0,0-3.572,2.635,9.148,9.148,0,0,0-1.221,5.035,14.874,14.874,0,0,0,29.749,0,8.378,8.378,0,0,0-1.484-5.156,7.365,7.365,0,0,0-3.955-2.529c-3.006-.856-6.478-.6-10.021-.6Zm0,3.636c3.668,0,7.016-.121,9.026.454a3.638,3.638,0,0,1,2.053,1.236,4.682,4.682,0,0,1,.745,2.955,11.238,11.238,0,0,1-22.476,0,5.71,5.71,0,0,1,.646-3.075,2.662,2.662,0,0,1,1.626-1.129c1.656-.533,4.711-.441,8.38-.441Z" transform="translate(-9527.254 2598.22)" fill="#fff"/>
    <path id="Path_166" data-name="Path 166" d="M413.358,120.317c-3.5.124-6.7,1.284-8.572,4.019s-2.255,6.6-1.293,11.725l3.572-.667c-.867-4.614-.352-7.431.724-9.005s2.861-2.344,5.695-2.443l-.128-3.629Z" transform="translate(-9555.55 2628.684)" fill="#fff" fill-rule="evenodd"/>
  </g>
</svg>
