<svg id="SvgjsSvg1001" width="288" height="288" xmlns="http://www.w3.org/2000/svg" version="1.1" xmlns:xlink="http://www.w3.org/1999/xlink" xmlns:svgjs="http://svgjs.com/svgjs"><defs id="SvgjsDefs1002"></defs><g id="SvgjsG1008"><svg xmlns="http://www.w3.org/2000/svg" viewBox="0 0 119.998 120" width="288" height="288"><path d="M120.794,97.184l-27.382-24.9a6.743,6.743,0,0,0-9.37.29L67.923,89.155c-3.88-.741-11.68-3.173-19.71-11.182-8.029-8.036-10.461-15.857-11.182-19.71L53.6,42.138a6.736,6.736,0,0,0,.29-9.37L29,5.393a6.736,6.736,0,0,0-9.37-.586L5.009,17.342a6.736,6.736,0,0,0-1.953,4.372c-.1,1.684-2.028,41.575,28.9,72.52,26.984,26.978,60.786,28.951,70.095,28.951,1.361,0,2.2-.04,2.418-.054a6.682,6.682,0,0,0,4.365-1.96l12.529-14.624a6.716,6.716,0,0,0-.573-9.363Z" data-name="bxs-phone (1)" transform="translate(-3 -3.185)" fill="#ffffff" class="color000 svgShape"></path></svg></g></svg>