<svg xmlns="http://www.w3.org/2000/svg" width="119.998" height="120" viewBox="0 0 119.998 120">
  <path id="bxs-phone_1_" data-name="bxs-phone (1)" d="M120.794,97.184l-27.382-24.9a6.743,6.743,0,0,0-9.37.29L67.923,89.155c-3.88-.741-11.68-3.173-19.71-11.182-8.029-8.036-10.461-15.857-11.182-19.71L53.6,42.138a6.736,6.736,0,0,0,.29-9.37L29,5.393a6.736,6.736,0,0,0-9.37-.586L5.009,17.342a6.736,6.736,0,0,0-1.953,4.372c-.1,1.684-2.028,41.575,28.9,72.52,26.984,26.978,60.786,28.951,70.095,28.951,1.361,0,2.2-.04,2.418-.054a6.682,6.682,0,0,0,4.365-1.96l12.529-14.624a6.716,6.716,0,0,0-.573-9.363Z" transform="translate(-3 -3.185)"/>
</svg>
