<svg xmlns="http://www.w3.org/2000/svg" width="117.744" height="120.964" viewBox="0 0 117.744 120.964">
  <g id="serving" transform="translate(9805.182 -2748.5)">
    <path id="Path_119" data-name="Path 119" d="M220.921,317.894a7.668,7.668,0,0,0-4.311-1.079h-.016c-1.7.006-3.264,1.085-4.754,1.827q-2.783,1.39-5.567,2.777c-3.24,1.616-6.475,3.248-9.723,4.851a33.2,33.2,0,0,1-11.742,3.277,11.92,11.92,0,0,0-1.069-5.646,1.907,1.907,0,0,0-.085-.179c-.016-.026-.032-.053-.047-.079s-.032-.066-.05-.1a10.356,10.356,0,0,0-7.823-5.222c-3.017-.387-6.046-.7-9.068-1.045l-8.363-.964a21.6,21.6,0,0,1-8.06-2.664c-.363-.2-.729-.408-1.092-.621-.9-.529-1.806-1.034-2.724-1.511-.082-.042-.165-.085-.247-.129-.111-.055-.218-.113-.329-.168a35.289,35.289,0,0,0-4.93-2.113c-.481-.161-.968-.306-1.455-.442-.326-.095-.652-.184-.984-.269q-.537-.134-1.076-.244a37.214,37.214,0,0,0-6.449-.8,1.706,1.706,0,0,0-.4.032c-1.916-.071-3.837-.06-5.764-.053a6.885,6.885,0,0,0-.5-3.243,4.871,4.871,0,0,0-4.014-2.645,1.8,1.8,0,0,0-.271-.021c-.066,0-.132,0-.195,0H114.15c-2.6,0-5.228.224-6.341,3.046a8.2,8.2,0,0,0-.342,3.106v33.484c0,2.906-.629,6.691,2.235,8.512,1.822,1.158,4.5.745,6.557.745s4.653.392,6.438-.835c2.077-1.429,2.208-3.969,2.153-6.373q5.867,2.621,11.734,5.244h0c3.127,1.4,6.38,3.314,9.781,3.927a28.541,28.541,0,0,0,7.994-.126q11.959-1.165,23.921-2.327c5.814-.566,12.587-.382,17.638-3.651,5.9-3.817,11.771-7.68,17.654-11.521q3.747-2.444,7.494-4.89a7.132,7.132,0,0,0-.149-11.867Zm-99.287,27.435c-.073,1.629-1.282,1.816-2.609,1.816-2.09,0-4.178.013-6.267,0-1.293-.008-2.113-.613-2.135-1.958-.013-.995,0-1.99,0-2.985V306.781c0-1.148.379-2.125,1.73-2.205,1.94-.116,3.922,0,5.867,0H120c1.616.086,1.8,2.1,1.74,3.882a1.812,1.812,0,0,0-.034.743c-.034.585-.076,1.106-.076,1.471V337.5c0,.961.016,1.927.032,2.893a1.339,1.339,0,0,0,.013.885c.013,1.351.016,2.7-.045,4.046Zm99.121-19.833a3.5,3.5,0,0,1-1.669,1.782l-7.617,4.972Q203,337.781,194.52,343.31c-4.432,2.879-9.979,2.735-15.079,3.23q-11.612,1.129-23.221,2.261c-2.113.2-4.251.521-6.375.589-4.211.134-7.926-2.109-11.658-3.774a0,0,0,0,1,0,0q-6.692-2.992-13.387-5.982V310.477c1.98-.024,3.98-.069,5.962.008a1.728,1.728,0,0,0,.2.019,34.161,34.161,0,0,1,16.235,5.033c.648.379,1.29.743,1.935,1.082a22.517,22.517,0,0,0,5,2.145,52.974,52.974,0,0,0,8.271,1.182q5.361.62,10.72,1.231c.416.047.835.095,1.25.145a10.569,10.569,0,0,1,3.38.839,7.471,7.471,0,0,1,2.935,2.737,9.451,9.451,0,0,1,.961,4.849q-10.467.64-20.933,1.277-1.6.1-3.208.195c-2.019.124-2.034,3.283,0,3.159q11.224-.682,22.452-1.369,1.6-.1,3.208-.195A36.585,36.585,0,0,0,195.95,330c1.442-.608,2.83-1.319,4.23-2.016l12-5.985c1.082-.54,3.23-2.024,4.435-2.027a4.19,4.19,0,0,1,3.725,1.616,4.017,4.017,0,0,1,.416,3.9Z" transform="translate(-9912.109 2516.48)" fill="#fff" stroke="#fff" stroke-width="1"/>
    <path id="Path_120" data-name="Path 120" d="M138.827,70.707h99.322a1.58,1.58,0,0,0,0-3.159h-6.706A43.461,43.461,0,0,0,203.32,28.772a41.444,41.444,0,0,0-9.365-2.277,6.954,6.954,0,0,0,1.553-4.351,7.014,7.014,0,0,0-14.022-.3,1.606,1.606,0,0,0-.016.3,1.782,1.782,0,0,0,.016.3,7.421,7.421,0,0,0,1.6,4.1,42.869,42.869,0,0,0-37.548,41.009H138.83a1.581,1.581,0,0,0,0,3.161Zm49.661-52.424a3.86,3.86,0,1,1-3.861,3.862,3.893,3.893,0,0,1,3.861-3.862ZM174.824,31.7a39.826,39.826,0,0,1,53.46,35.853H148.7A40.2,40.2,0,0,1,174.825,31.7Z" transform="translate(-9934.809 2733.876)" fill="#fff" stroke="#fff" stroke-width="1"/>
  </g>
</svg>
