<svg id="SvgjsSvg1001" width="288" height="288" xmlns="http://www.w3.org/2000/svg" version="1.1" xmlns:xlink="http://www.w3.org/1999/xlink" xmlns:svgjs="http://svgjs.com/svgjs"><defs id="SvgjsDefs1002"></defs><g id="SvgjsG1008"><svg xmlns="http://www.w3.org/2000/svg" viewBox="0 0 227.217 184.648" width="288" height="288"><path fill="#fc72a6" fill-rule="evenodd" d="M215.753,8.229l.1.215L227.37,6.416c-.018-.074-.035-.148-.054-.222ZM119.22,117.749c3.23-4.488,6.876-8.753,8.035-14.348Zm12.426-46.872c-.128-.746-.2-1.509-.394-2.236-3.182-11.723-13.544-13.072-21.9-9.1a24.03,24.03,0,0,0-6.888,5.353,30.606,30.606,0,0,0-4.806,6.119A38.506,38.506,0,0,0,93.1,89.077c-.224,8.79.9,17.342,5.561,25.049,2.731,4.511,6.238,8.178,11.32,10.167a2.292,2.292,0,0,0,3.127-.965c6.265-8.486,11.844-17.351,15.38-27.338C131.378,87.839,133.061,79.536,131.646,70.877Zm60.687-53.446,17.626-7.466c-4.672,1.553-9.285,3.3-13.839,5.2a27.624,27.624,0,0,0-3.746,2.3c-2.857.446-4.732,2.478-6.712,4.337ZM108.851,128.576A32.213,32.213,0,0,1,91.11,111.664C84.3,96.868,84.2,81.9,91.943,67.307a29.049,29.049,0,0,1,16.883-14.236c6.3-2.09,12.323-.941,17.85,2.563,5.5,3.485,9.493,8.338,11.1,14.614a35.815,35.815,0,0,1,.635,16.563c-.969,4.446-1.983,8.9-3.357,13.234a44.174,44.174,0,0,1-3.628,7.476c-3.112,5.722-6.307,11.4-9.333,17.516a38.356,38.356,0,0,0,4.21-2.078,33.647,33.647,0,0,0,9.92-10.74c6.328-10.07,9.783-21.271,12.919-32.6,2.728-9.85,5.538-19.677,10-28.945,8.738-18.153,22.356-31.142,41.04-38.889,11.443-4.745,23.564-6.421,35.618-8.5,4.536-.782,9.009-1.949,13.513-2.932a7.579,7.579,0,0,1,1.051-.045c-.461.61-.769,1.018-.832,1.1l2.229,1.24c-.449.766-.729,1.758-1.385,2.244a10.16,10.16,0,0,1-3.345,1.566c-3.234.875-6.515,1.568-9.764,2.39-3.71.94-7.4,1.963-11.11,2.9-.9.228-1.882.151-2.774.4-4.272,1.188-8.592,2.254-12.768,3.725-3.75,1.322-7.273,3.286-11.013,4.642a37.456,37.456,0,0,0-7.856,4.18c-5.979,3.947-11.591,8.206-16.094,13.967a105.606,105.606,0,0,0-14.635,26.442c-2.222,5.594-3.228,11.651-4.983,17.44-1.813,5.978-3.823,11.9-5.84,17.815a59.69,59.69,0,0,1-3.441,8.8,103.118,103.118,0,0,1-6.427,10.161,34.926,34.926,0,0,1-4.979,6.026,19.858,19.858,0,0,1-15.768,5.389,4.281,4.281,0,0,0-4.269,1.7A140.615,140.615,0,0,1,84.121,160.8c-7.032,4.718-14.081,9.479-21.5,13.531a88.383,88.383,0,0,1-30.669,10.462,21.651,21.651,0,0,1-5.36,0c-.734-.086-1.37-.965-2.05-1.482.557-.53,1.033-1.327,1.691-1.532a17.63,17.63,0,0,1,3.549-.46,15.578,15.578,0,0,0,2.413-.179,108.054,108.054,0,0,0,23.682-9.412c19.589-10.518,36.888-23.929,51.247-40.985C107.653,130.119,108.148,129.462,108.851,128.576Z" transform="translate(-24.544 -.313)" class="color24dac2 svgShape"></path></svg></g></svg>