<svg xmlns="http://www.w3.org/2000/svg" width="120" height="90.52" viewBox="0 0 120 90.52">
  <g id="Vegan" transform="translate(8645.178 -2749)">
    <path id="Path_173" data-name="Path 173" d="M468.1,118.3H493.07c-.684,5.568-3.188,10.336-6.34,12.719a11.539,11.539,0,0,1-4.046,2.089v47.236h-4.2V133.113a11.541,11.541,0,0,1-4.046-2.089c-3.154-2.384-5.657-7.151-6.341-12.718Zm-3.631-25.051v22.031c0,7.493,2.859,14.472,7.849,18.414a13.713,13.713,0,0,0,2.74,1.562V183.77h11.048V135.261a13.713,13.713,0,0,0,2.74-1.562c4.992-3.942,7.849-10.922,7.849-18.414V93.252H493.28v21.632H487.1V93.252H483.68v21.632H477.5V93.252h-3.418v21.632h-6.185V93.252Z" transform="translate(-9021.876 2655.748)" fill="#fff" fill-rule="evenodd"/>
    <path id="Path_174" data-name="Path 174" d="M118.631,96.68c-3.371,0-6.49,1.854-8.87,5.115a22.3,22.3,0,0,0-3.923,13.026c0,8.4,4.188,15.542,9.579,17.554l1.115.407v47.563h4.2v-47.58l1.115-.415c5.382-2,9.571-9.14,9.579-17.53a22.272,22.272,0,0,0-3.923-13.026c-2.378-3.262-5.5-5.115-8.868-5.115Zm0-3.427c4.636.009,8.768,2.593,11.635,6.523a25.58,25.58,0,0,1,4.574,15.044c0,8.485-3.8,16.682-10.686,20.044v48.909H113.109V134.878c-6.529-3.15-10.692-11.084-10.692-20.058a25.6,25.6,0,0,1,4.578-15.044c2.868-3.93,7-6.514,11.637-6.523Z" transform="translate(-8747.594 2655.747)" fill="#fff" fill-rule="evenodd"/>
    <path id="Path_175" data-name="Path 175" d="M270.7,184.674a40.7,40.7,0,0,1,9.932,1.162c-2.442,8.022-6.284,13.434-10.592,15.753-4.389,2.354-9.137,2.074-13.6-.9v-5.359a13.534,13.534,0,0,1,9.46-9.892,16.734,16.734,0,0,1,4.8-.769Zm-31.946,0a16.848,16.848,0,0,1,4.809.769,13.774,13.774,0,0,1,8.728,7.681,14.141,14.141,0,0,1,.723,2.21v5.36c-4.463,2.97-9.2,3.249-13.593.9-4.313-2.318-8.146-7.732-10.59-15.753a40.742,40.742,0,0,1,9.924-1.163Zm16.013-42.152c7.277,7.628,10.625,15.25,10.34,21.527s-3.836,11.251-9.894,14.309h-.973c-6.05-3.048-9.594-8.025-9.87-14.284-.274-6.288,3.1-13.908,10.4-21.552Zm0-5.187-1.186,1.147c-8.958,8.659-12.971,17.765-12.626,25.739.331,7.631,4.785,14.065,12.06,17.577v6.04a18.033,18.033,0,0,0-8.375-5.648,25.551,25.551,0,0,0-8.565-1.226,39.346,39.346,0,0,0-10.229,1.641l-1.58.463.386,1.588c2.5,10.071,7.3,16.806,13.144,19.95a16.355,16.355,0,0,0,16.94-.928,16.337,16.337,0,0,0,16.93.928c5.845-3.144,10.64-9.879,13.128-19.95l.4-1.588-1.58-.463a39.383,39.383,0,0,0-10.235-1.641,25.616,25.616,0,0,0-8.565,1.226,18.109,18.109,0,0,0-8.376,5.641V181.8c7.292-3.53,11.737-9.964,12.086-17.592.359-7.981-3.629-17.082-12.572-25.725Z" transform="translate(-8839.903 2622.352)" fill="#fff"/>
  </g>
</svg>
